<!-- Generated by IcoMoon.io -->
<svg version="1.1" xmlns="http://www.w3.org/2000/svg" width="32" height="32" viewBox="0 0 32 32">
<title>cat-iconfont-arrow-400-right</title>
<path d="M11.072 25.6l-0.384-0.448 9.984-8.64-9.984-9.664 0.384-0.448 10.496 10.112zM11.072 26.112l-0.832-1.024 9.984-8.64-10.048-9.6 0.896-0.896 10.944 10.624-10.944 9.536zM11.136 25.152v0 0zM11.136 6.848v0zM11.072 26.112l-0.832-1.024 9.984-8.64-10.048-9.6 0.896-0.896 10.944 10.624-10.944 9.536zM11.136 25.152v0zM11.136 6.848v0zM11.008 26.56l-1.28-1.472 9.92-8.576-9.92-9.6 1.344-1.408 11.456 11.072-11.52 9.984zM10.688 25.152l0.448 0.512 0.256-0.192-0.448-0.512 9.984-8.64 0.448 0.512-7.168 6.208 7.488-6.464-9.984-9.6-0.448 0.448-0.128-0.128 9.6 9.28-10.048 8.576zM10.688 6.848l0.192 0.192 0.448-0.448 0.192 0.192-0.448-0.384-0.384 0.448z"></path>
</svg>
