<!-- Generated by IcoMoon.io -->
<svg version="1.1" xmlns="http://www.w3.org/2000/svg" width="32" height="32" viewBox="0 0 32 32">
<title>cat-iconfont-24</title>
<path d="M29.184 16.256c0 0.768-0.64 1.408-1.408 1.408s-1.408-0.64-1.408-1.408c0-0.768 0.64-1.408 1.408-1.408s1.408 0.64 1.408 1.408zM26.048 13.056c0 0.768-0.64 1.408-1.408 1.408s-1.408-0.64-1.408-1.408c0-0.768 0.64-1.408 1.408-1.408 0.768 0.064 1.408 0.64 1.408 1.408zM22.912 9.92c0 0.768-0.64 1.408-1.408 1.408s-1.408-0.64-1.408-1.408c0-0.768 0.64-1.408 1.408-1.408 0.768 0.064 1.408 0.64 1.408 1.408zM19.776 6.784c0 0.768-0.64 1.408-1.408 1.408s-1.408-0.64-1.408-1.408c0-0.768 0.64-1.408 1.408-1.408 0.768 0.064 1.408 0.64 1.408 1.408zM24.64 17.984c0.768 0 1.408 0.64 1.408 1.408s-0.64 1.408-1.408 1.408c-0.768 0-1.408-0.64-1.408-1.408s0.64-1.408 1.408-1.408zM21.504 21.12c0.768 0 1.408 0.64 1.408 1.408s-0.64 1.408-1.408 1.408c-0.768 0-1.408-0.64-1.408-1.408s0.64-1.408 1.408-1.408zM18.368 24.256c0.768 0 1.408 0.64 1.408 1.408s-0.64 1.408-1.408 1.408c-0.768 0-1.408-0.64-1.408-1.408s0.64-1.408 1.408-1.408zM22.976 15.232c0.576 0.512 0.576 1.408 0 1.984-0.512 0.512-1.408 0.512-1.984 0-0.512-0.512-0.512-1.408 0-1.984 0.576-0.512 1.408-0.512 1.984 0zM18.496 15.232c0.512 0.512 0.512 1.408 0 1.984-0.512 0.512-1.408 0.512-1.984 0-0.512-0.512-0.512-1.408 0-1.984 0.576-0.512 1.472-0.512 1.984 0zM14.080 15.232c0.512 0.512 0.512 1.408 0 1.984-0.512 0.512-1.408 0.512-1.984 0-0.512-0.512-0.512-1.408 0-1.984 0.576-0.512 1.408-0.512 1.984 0zM9.6 15.232c0.512 0.512 0.512 1.408 0 1.984-0.512 0.512-1.408 0.512-1.984 0-0.512-0.512-0.512-1.408 0-1.984 0.576-0.512 1.472-0.512 1.984 0zM5.184 15.232c0.512 0.512 0.512 1.408 0 1.984-0.512 0.512-1.408 0.512-1.984 0-0.512-0.512-0.512-1.408 0-1.984 0.576-0.512 1.408-0.512 1.984 0z"></path>
</svg>
