<?xml version="1.0" encoding="utf-8"?>
<!-- Generator: Adobe Illustrator 27.0.1, SVG Export Plug-In . SVG Version: 6.00 Build 0)  -->
<svg version="1.1" id="Ebene_1" xmlns="http://www.w3.org/2000/svg" xmlns:xlink="http://www.w3.org/1999/xlink" x="0px" y="0px"
	 viewBox="0 0 36.1 30.6" style="enable-background:new 0 0 36.1 30.6;" xml:space="preserve">
<style type="text/css">
	.st0{fill:#C6C6C6;}
	.st1{fill:#CE1970;}
	.st2{display:none;fill:#FFFFFF;}
	.st3{fill:#FFFFFF;}
</style>
<path class="st0" d="M6,29.9h20c3.3,0,6-2.7,6-6H0C0,27.2,2.7,29.9,6,29.9z M26,25.9h2v2h-2V25.9z M30,5.9H2l-2,16h32L30,5.9z"/>
<g>
	<circle class="st1" cx="27.8" cy="8.3" r="7.4"/>
	<path class="st2" d="M26.2,11.5c-0.2,0.2-0.6,0.3-0.8,0.1L24.9,11c-0.2-0.2-0.1-0.6,0.1-0.8l2.1-2.1c-0.4-0.4-1.2-0.2-1.7,0.2
		l-1.6,1.6c-0.5,0.5-0.6,1.3-0.2,1.7l1.1,1.1c0.4,0.4,1.3,0.3,1.7-0.2l1.6-1.6c0.4-0.4,0.6-1.2,0.2-1.7L26.2,11.5L26.2,11.5z"/>
	<path class="st2" d="M32.3,5.3l-1.1-1.1c-0.4-0.4-1.3-0.3-1.7,0.2l-1.6,1.6c-0.4,0.4-0.6,1.2-0.2,1.7l2.1-2.1
		c0.2-0.2,0.6-0.3,0.8-0.1L31,5.9c0.2,0.2,0.1,0.6-0.1,0.8l-2.1,2.1c0.4,0.4,1.2,0.2,1.7-0.2L32.1,7C32.6,6.6,32.7,5.7,32.3,5.3
		L32.3,5.3z"/>
	<path class="st2" d="M26.3,10.1c0.2,0.2,0.6,0.2,0.8,0l2.5-2.5c0.2-0.2,0.2-0.6,0-0.8c-0.2-0.2-0.6-0.2-0.8,0l-2.5,2.5
		C26.1,9.5,26.1,9.9,26.3,10.1L26.3,10.1z"/>
	<path class="st3" d="M31.8,4.5c-0.9-0.9-2.4-0.9-3.3,0l-1.3,1.3c0.5-0.1,1,0,1.5,0.2l0.6-0.6c0.5-0.5,1.2-0.5,1.7,0
		c0.5,0.5,0.5,1.2,0,1.7l-1.7,1.7c-0.5,0.5-1.2,0.5-1.7,0c-0.1-0.1-0.2-0.3-0.3-0.5c0,0-0.1,0-0.1,0.1l-0.8,0.8
		c0.1,0.2,0.2,0.3,0.4,0.5c0.9,0.9,2.4,0.9,3.3,0l1.7-1.7C32.7,7,32.7,5.5,31.8,4.5L31.8,4.5z"/>
</g>
<path class="st3" d="M27.3,10.6l-0.6,0.6c-0.5,0.5-1.2,0.5-1.7,0c-0.5-0.5-0.5-1.2,0-1.7l1.7-1.7c0.5-0.5,1.2-0.5,1.7,0
	c0.1,0.1,0.2,0.3,0.3,0.5c0,0,0.1,0,0.1-0.1l0.8-0.8c-0.1-0.2-0.2-0.3-0.4-0.5c-0.9-0.9-2.4-0.9-3.3,0l-1.7,1.7
	c-0.9,0.9-0.9,2.4,0,3.3c0.9,0.9,2.4,0.9,3.3,0l1.3-1.3C28.3,10.9,27.8,10.8,27.3,10.6L27.3,10.6z"/>
</svg>
