<?xml version="1.0" encoding="utf-8"?>
<!-- Generator: Adobe Illustrator 27.0.1, SVG Export Plug-In . SVG Version: 6.00 Build 0)  -->
<svg version="1.1" id="Ebene_1" xmlns="http://www.w3.org/2000/svg" xmlns:xlink="http://www.w3.org/1999/xlink" x="0px" y="0px"
	 viewBox="0 0 556.3 561.4" style="enable-background:new 0 0 556.3 561.4;" xml:space="preserve">
<path d="M465,288.5c4.2,17.8,19.5,30.5,38.2,30.5c21.2,0,39-17.8,39-39c0-21.2-17.8-39-39-39c-18.7,0-33.9,12.7-38.2,30.5H261.3
	v-56.8h115.4c2.5,0,5.1-0.8,5.9-2.5l45.8-51.8H465c4.2,17.8,19.5,30.5,38.2,30.5c21.2,0,39-17.8,39-39c0-21.2-17.8-39-39-39
	c-18.7,0-33.9,12.7-38.2,30.5h-39.9c-2.5,0-5.1,0.8-5.9,2.5l-46.7,51.8H261.3v-53.5H347c2.5,0,4.2-0.8,5.9-2.5l38.2-38.2
	c6.8,4.2,14.4,7.6,22.9,7.6c21.2,0,39-17.8,39-39c0-21.2-17.8-39-39-39c-21.2,0-39,17.8-39,39c0,6.8,1.7,13.6,5.1,18.7l-36.5,36.5
	h-82.3V89.9c0-44.1-36.5-80.6-80.6-80.6c-38.2,0-70.4,27.2-78.1,62.8C76.3,78.1,55.1,96.7,45.8,123c-8.5,23.8-5.9,50.1,7.6,70.4
	c-67.9,28.8-72.1,125.6-6.8,160.4c-17,43.3,7.6,95,55.2,106.9c-6.8,46.7,29.7,90.8,78.9,90.8c44.1,0,80.6-35.6,80.6-80.6v-47.5h82.3
	l36.5,36.5c-3.4,5.9-5.1,11.9-5.1,18.7c0,21.2,17.8,39,39,39c21.2,0,39-17.8,39-39c0-21.2-17.8-39-39-39c-8.5,0-16.1,2.5-22.9,7.6
	L353,409c-1.7-1.7-3.4-2.5-5.9-2.5l-85.7,0v-54.3h111.1l45.8,51.8c1.7,1.7,4.2,2.5,5.9,2.5h39.9c4.2,17.8,19.5,30.5,38.2,30.5
	c21.2,0,39-17.8,39-39c0-21.2-17.8-39-39-39c-18.7,0-33.9,12.7-38.2,30.5h-36.5l-45.8-51.8c-1.7-1.7-4.2-2.5-5.9-2.5H261.3v-46.7
	L465,288.5z M503.1,257.9c11.9,0,22.1,10.2,22.1,22.1s-10.2,22.1-22.1,22.1s-22.1-10.2-22.1-22.1
	C481.1,268.1,491.3,257.9,503.1,257.9z M503.1,129.8c11.9,0,22.1,10.2,22.1,22.1s-10.2,22.1-22.1,22.1s-22.1-10.2-22.1-22.1
	C481.1,139.1,491.3,129.8,503.1,129.8z M414.1,49.2c11.9,0,22.1,10.2,22.1,22.1c0,11.9-10.2,22.1-22.1,22.1
	c-11.9,0-22.1-10.2-22.1-22.1C392,59.4,402.2,49.2,414.1,49.2L414.1,49.2z M436.1,479.4c0,11.9-10.2,22.1-22.1,22.1
	S392,491.3,392,479.4c0-11.9,10.2-22.1,22.1-22.1C425.9,457.3,436.1,466.7,436.1,479.4z M503.1,376.7c11.9,0,22.1,10.2,22.1,22.1
	c0,11.9-10.2,22.1-22.1,22.1s-22.1-10.2-22.1-22.1C481.1,386.9,491.3,376.7,503.1,376.7z M244.4,470.9c0,34.8-28.8,63.6-63.6,63.6
	c-19.5,0-37.3-8.5-50.1-24.6c-32.2-41.6-2.5-102.7,50.1-102.7c5.1,0,8.5-3.4,8.5-8.5c0-5.1-3.4-8.5-8.5-8.5
	c-34.8,0-64.5,22.9-75.5,53.5c-37.3-9.3-56.8-50.1-43.3-84c32.2,10.2,67,1.7,89.9-22.1c3.4-3.4,3.4-8.5,0-11.9
	c-3.4-3.4-8.5-3.4-11.9,0c-46.7,46.7-127.3,11-123-56c4.2-62.8,79.8-89.9,123-46.7c3.4,3.4,8.5,3.4,11.9,0c3.4-3.4,3.4-8.5,0-11.9
	c-22.1-22.1-52.6-29.7-81.5-23.8c-26.3-34.8-9.3-84.8,30.5-97.6c0.8,44.1,36.5,78.9,80.6,78.9c5.1,0,8.5-3.4,8.5-8.5
	c0-5.1-3.4-8.5-8.5-8.5c-34.8,0-63.6-28-63.6-63.6s28.8-63.6,63.6-63.6s63.6,28.8,63.6,63.6v382.7L244.4,470.9z"/>
</svg>
