<?xml version="1.0" encoding="utf-8"?>
<!-- Generator: Adobe Illustrator 27.0.1, SVG Export Plug-In . SVG Version: 6.00 Build 0)  -->
<svg version="1.1" id="Ebene_1" xmlns="http://www.w3.org/2000/svg" xmlns:xlink="http://www.w3.org/1999/xlink" x="0px" y="0px"
	 viewBox="0 0 557.6 560.6" style="enable-background:new 0 0 557.6 560.6;" xml:space="preserve">
<path d="M373,508.2c-4.2,1.7-6.8,6.8-4.2,11c1.7,4.2,6.8,6.8,11,4.2c4.2-1.7,6.8-6.8,4.2-11C382.3,508.2,377.2,506.5,373,508.2z"/>
<path d="M171,470.1c0-45-36.5-81.5-81.5-81.5c-12.7,0-25.5,3.4-35.6,8.5h-0.8c-27.2,13.6-45,40.7-45,73c0,45,36.5,81.5,81.5,81.5
	C134.6,551.5,171,514.2,171,470.1L171,470.1z M89.6,534.5c-35.6,0-64.5-28.9-64.5-64.5c0-35.6,28.8-64.5,64.5-64.5
	s64.5,28.8,64.5,64.5C154.1,505.7,125.2,534.5,89.6,534.5L89.6,534.5z"/>
<path d="M350.1,515.9c-4.2,1.7-6.8,5.9-5.9,10.2c0.8,4.2,5.1,6.8,11,5.9c4.2-1.7,6.8-5.9,5.9-11C359.4,517.6,354.3,515,350.1,515.9
	L350.1,515.9z"/>
<path d="M301.7,525.2c-4.2,0.8-8.5,4.2-7.6,9.3c0.8,5.1,5.9,8.5,9.3,7.6c4.2-0.8,7.6-4.2,7.6-9.3C310.2,528.6,306,525.2,301.7,525.2
	z"/>
<path d="M326.3,521.8c-4.2,0.8-7.6,5.1-6.8,10.2c0.8,4.2,5.1,7.6,10.2,6.8c4.2-0.8,7.6-5.1,6.8-10.2
	C334.8,524.4,330.6,521,326.3,521.8z"/>
<path d="M277.1,526.1c-4.2,0-8.5,3.4-8.5,8.5c0,4.2,3.4,8.5,8.5,8.5c4.2,0,8.5-3.4,8.5-8.5C285.6,530.3,281.4,526.1,277.1,526.1z"/>
<path d="M204.1,515c-4.2-1.7-9.3,0.8-11,5.1c-1.7,5.1,1.7,11,8.5,11c3.4,0,6.8-2.5,7.6-5.9C210.9,521,209.2,515.9,204.1,515
	L204.1,515z"/>
<path d="M227.9,521c-4.2-0.8-9.3,1.7-10.2,6.8c-0.8,5.1,3.4,10.2,8.5,10.2c4.2,0,7.6-2.5,8.5-6.8C235.5,526.1,233,521.8,227.9,521
	L227.9,521z"/>
<path d="M252.5,525.2c-4.2-0.8-8.5,2.5-9.3,7.6s3.4,9.3,8.5,9.3c4.2,0,7.6-3.4,8.5-7.6C260.1,529.5,256.8,525.2,252.5,525.2
	L252.5,525.2z"/>
<path d="M181.2,505.7c-4.2-1.7-9.3,0-11,4.2c-2.5,5.1,1.7,11.9,7.6,11.9c3.4,0,6.8-1.7,7.6-5.1C188,512.5,185.5,508.2,181.2,505.7
	L181.2,505.7z"/>
<path d="M227.9,39c4.2-0.8,7.6-5.1,6.8-10.2c-0.8-4.2-5.1-7.6-10.2-6.8c-4.2,0.8-7.6,5.1-6.8,10.2C219.4,37.3,224.5,39.9,227.9,39z"
	/>
<path d="M204.1,45.8c4.2-1.7,6.8-5.9,5.1-11c-1.7-4.2-5.9-6.8-11-5.1c-4.2,1.7-6.8,5.9-5.1,11C194.8,44.1,199,46.7,204.1,45.8z"/>
<path d="M181.2,54.3c4.2-1.7,5.9-6.8,4.2-11c-1.7-4.2-6.8-5.9-11-4.2c-4.2,1.7-5.9,6.8-4.2,11C171.9,54.3,177.8,56,181.2,54.3z"/>
<path d="M373,51.8c4.2,1.7,9.3-0.8,11-4.2c1.7-4.2,0-9.3-4.2-11c-4.2-1.7-9.3,0-11,4.2C367.1,45,368.7,50.1,373,51.8z"/>
<path d="M326.3,38.2c3.4,0.8,8.5-1.7,10.2-6.8c0.8-4.2-2.5-9.3-6.8-10.2c-4.2-0.8-9.3,2.5-10.2,6.8
	C318.7,33.1,321.2,37.3,326.3,38.2z"/>
<path d="M301.7,34.8c5.9,0,8.5-3.4,9.3-7.6c0-5.1-3.4-8.5-7.6-9.3c-5.1,0-8.5,3.4-9.3,7.6C293.2,30.5,296.6,33.9,301.7,34.8z"/>
<path d="M260.1,25.5c-0.8-4.2-5.1-7.6-9.3-7.6c-5.1,0.8-7.6,4.2-7.6,9.3C244,39,261,37.3,260.1,25.5L260.1,25.5z"/>
<path d="M277.1,33.9c5.1,0,8.5-4.2,8.5-8.5s-4.2-8.5-8.5-8.5c-5.1,0-8.5,4.2-8.5,8.5S272,33.9,277.1,33.9z"/>
<path d="M350.1,44.1c4.2,1.7,9.3-0.8,11-5.9c1.7-4.2-0.8-9.3-5.9-10.2c-4.2-1.7-9.3,0.8-10.2,5.9C342.5,38.2,345,42.4,350.1,44.1
	L350.1,44.1z"/>
<path d="M532.5,354.7c1.7-4.2-0.8-9.3-5.9-10.2c-4.2-1.7-9.3,0.8-10.2,5.9c-1.7,5.1,2.5,11,7.6,11
	C527.4,361.5,530.8,358.9,532.5,354.7L532.5,354.7z"/>
<path d="M538.4,329.2c0.8-4.2-2.5-9.3-6.8-10.2c-4.2-0.8-9.3,2.5-10.2,6.8c-0.8,5.1,3.4,10.2,8.5,10.2
	C534.2,336,537.6,333.5,538.4,329.2L538.4,329.2z"/>
<path d="M534.2,269c-5.1,0-8.5,4.2-8.5,8.5s3.4,8.5,8.5,8.5s8.5-3.4,8.5-8.5S539.3,269,534.2,269z"/>
<path d="M541.8,303.8c0-5.1-3.4-8.5-7.6-9.3c-4.2-0.8-8.5,3.4-9.3,7.6c-0.8,5.1,3.4,9.3,8.5,9.3C537.6,311.4,541.8,308,541.8,303.8
	L541.8,303.8z"/>
<path d="M515.5,385.2c3.4,0,6.8-1.7,7.6-5.1c4.2-10.2-11.9-17-16.1-6.8C505.4,378.4,509.6,385.2,515.5,385.2L515.5,385.2z"/>
<path d="M524.9,252.9c0,4.2,3.4,7.6,9.3,7.6c5.1-0.8,7.6-5.1,7.6-9.3c-0.8-4.2-5.1-7.6-9.3-7.6C527.4,244.4,524,247.8,524.9,252.9
	L524.9,252.9z"/>
<path d="M509.6,170.6c-4.2,1.7-5.9,6.8-4.2,11c1.7,4.2,6.8,6.8,11,4.2c4.2-1.7,5.9-6.8,4.2-11C518.9,170.6,514.7,168.9,509.6,170.6z
	"/>
<path d="M527.4,218.1c-5.1,0.8-7.6,5.1-6.8,10.2c0.8,4.2,4.2,7.6,10.2,6.8c4.2-0.8,7.6-5.9,6.8-10.2
	C535.9,220.6,531.7,217.2,527.4,218.1z"/>
<path d="M519.8,194.3c-4.2,1.7-6.8,5.9-5.1,11c1.7,5.1,6.8,6.8,11,5.1c4.2-1.7,6.8-5.9,5.1-11C529.1,195.1,524,192.6,519.8,194.3z"
	/>
<path d="M37,366.5h2.5c4.2-1.7,6.8-5.9,5.1-11c-1.7-4.2-5.9-6.8-11-5.1c-4.2,1.7-6.8,5.9-5.9,11C30.2,364,33.6,366.5,37,366.5
	L37,366.5z"/>
<path d="M46.3,390.3c0.8,0,2.5,0,3.4-0.8c4.2-1.7,5.9-6.8,4.2-11c-1.7-4.2-6.8-5.9-11-4.2c-4.2,1.7-5.9,6.8-4.2,11
	C39.5,388.6,42.9,390.3,46.3,390.3L46.3,390.3z"/>
<path d="M17.5,256.2c-0.8,5.1,3.4,8.5,7.6,9.3H26c4.2,0,7.6-3.4,8.5-7.6c0.8-5.1-3.4-8.5-7.6-9.3C21.7,248.6,17.5,252,17.5,256.2
	L17.5,256.2z"/>
<path d="M26.8,316.5h0.8c4.2-0.8,7.6-4.2,7.6-9.3c-0.8-5.1-4.2-8.5-9.3-7.6c-4.2,0.8-7.6,5.1-7.6,9.3S22.6,316.5,26.8,316.5
	L26.8,316.5z"/>
<path d="M20.9,230.8c-0.8,4.2,2.5,9.3,6.8,10.2h1.7c4.2,0,7.6-2.5,8.5-6.8c0.8-4.2-2.5-9.3-6.8-10.2C26,223.2,21.7,225.7,20.9,230.8
	L20.9,230.8z"/>
<path d="M27.7,205.3c-1.7,4.2,0.8,9.3,5.9,10.2h2.5c3.4,0,6.8-2.5,8.5-5.9c0.8-4.2-1.7-9.3-5.9-10.2
	C33.6,197.7,28.5,200.2,27.7,205.3L27.7,205.3z"/>
<path d="M40.4,190.9c0.8,0,2.5,0.8,3.4,0.8c3.4,0,6.8-1.7,7.6-5.1c1.7-4.2,0-9.3-5.1-11c-4.2-1.7-9.3,0-11,4.2
	C34.5,184.1,36.1,189.2,40.4,190.9L40.4,190.9z"/>
<path d="M25.1,291c5.1,0,8.5-4.2,8.5-8.5c0-5.1-4.2-8.5-8.5-8.5s-8.5,4.2-8.5,8.5C16.6,287.6,20,291,25.1,291z"/>
<path d="M30.2,341.9h1.7c4.2-0.8,7.6-5.1,6.8-10.2c-0.8-4.2-5.1-7.6-10.2-6.8c-4.2,0.8-7.6,5.1-6.8,10.2
	C23.4,339.4,26.8,341.9,30.2,341.9L30.2,341.9z"/>
<path d="M279.7,140.9c-77.2,0-139.1,62.8-139.1,139.1c0,77.2,62.8,139.1,139.1,139.1c77.2,0,139.1-62.8,139.1-139.1
	C418.8,202.8,356.9,140.9,279.7,140.9z M279.7,402.2c-67.9,0-122.2-55.2-122.2-122.2c0-67.9,55.2-122.2,122.2-122.2
	c67.9,0,122.2,55.2,122.2,122.2C401.8,347.9,347.5,402.2,279.7,402.2z"/>
<path d="M279.7,181.6c-37.3,0-68.7,30.5-68.7,68.7v56.8c0,5.1,3.4,8.5,8.5,8.5h29.7c5.1,0,8.5-3.4,8.5-8.5v-37.3
	c0-5.1-3.4-8.5-8.5-8.5h-21.2v-11c0-28,22.9-51.8,51.8-51.8c28,0,51.8,22.9,51.8,51.8v11h-21.2c-5.1,0-8.5,3.4-8.5,8.5v37.3
	c0,5.1,3.4,8.5,8.5,8.5h21.2V347c0,0.8-0.8,1.7-1.7,1.7h-21.2c-0.8-6.8-6.8-12.7-13.6-12.7h-28.8c-7.6,0-14.4,5.9-14.4,14.4v14.4
	c0,7.6,5.9,14.4,14.4,14.4h28.8c7.6,0,13.6-5.9,13.6-12.7h21.2c10.2,0,18.7-8.5,18.7-18.7V252C348.4,212.1,317,181.6,279.7,181.6
	L279.7,181.6z M241.5,278.3v20.4h-12.7v-20.4H241.5z M291.5,361.4h-22.9V353h22.9V361.4z M317.8,278.3h12.7v20.4h-12.7V278.3z"/>
<path d="M513,401.3c0.8-3.4-0.8-6.8-4.2-8.5c-3.4-1.7-7.6-0.8-10.2,1.7c-9.3-3.4-18.7-5.1-28.8-5.1c-45,0-81.5,36.5-81.5,81.5
	c0,10.2,1.7,20.4,5.1,28.8c-2.5,2.5-3.4,6.8-1.7,10.2c1.7,3.4,5.1,5.1,8.5,4.2c15.3,22.1,40.7,37.3,69.6,37.3
	c45,0,81.5-36.5,81.5-81.5C551.2,441.2,535.9,415.8,513,401.3L513,401.3z M469.7,534.5c-35.6,0-64.5-28.8-64.5-64.5
	s28.8-64.5,64.5-64.5s64.5,28.8,64.5,64.5C534.2,505.7,505.4,534.5,469.7,534.5z"/>
<path d="M469.7,171.4c44.1,0,81.5-36.5,81.5-81.5c0-45-36.5-81.5-81.5-81.5c-28.9,0-54.3,15.3-68.7,38.2c-3.4-0.8-6.8,0.8-8.5,4.2
	c-1.7,3.4-0.8,7.6,1.7,10.2c-3.4,9.3-5.1,18.7-5.1,28.8C388.3,134.9,424.7,171.4,469.7,171.4L469.7,171.4z M469.7,25.4
	c35.6,0,64.5,28.8,64.5,64.5s-28.8,64.5-64.5,64.5s-64.5-28.8-64.5-64.5C405.2,54.3,434.1,25.4,469.7,25.4z"/>
<path d="M46.3,158.7c-0.8,3.4,0.8,6.8,4.2,8.5c0.8,0.8,2.5,0.8,4.2,0.8c2.5,0,4.2-0.8,5.9-2.5c9.3,3.4,18.7,5.1,28.8,5.1
	c45,0,81.5-36.5,81.5-81.5c0-12.7-3.4-25.5-8.5-36.5v-0.8C149,27.2,121.8,8.5,89.6,8.5C44.6,8.5,8.1,45,8.1,89.9
	C8.1,118.8,23.4,144.2,46.3,158.7L46.3,158.7z M89.6,25.5c35.6,0,64.5,28.8,64.5,64.5s-28.8,64.5-64.5,64.5
	c-35.6,0-64.5-28.8-64.5-64.5C25.1,54.3,54,25.5,89.6,25.5z"/>
<path d="M499.4,427.6H440c-5.1,0-8.5,3.4-8.5,8.5v41.6c0,5.1,3.4,8.5,8.5,8.5h21.2v9.3h-5.1c-5.1,0-8.5,3.4-8.5,8.5s3.4,8.5,8.5,8.5
	l27.2,0c5.1,0,8.5-3.4,8.5-8.5s-3.4-8.5-8.5-8.5h-5.1v-9.3h21.2c5.1,0,8.5-3.4,8.5-8.5v-41.6C507.9,431,504.5,427.6,499.4,427.6
	L499.4,427.6z M490.9,469.2h-42.4v-24.6h42.4V469.2z"/>
<path d="M114.2,472.6H95.5v-27.2c0-5.1-3.4-8.5-8.5-8.5c-5.1,0-8.5,3.4-8.5,8.5v35.6c0,5.1,3.4,8.5,8.5,8.5h27.2
	c5.1,0,8.5-3.4,8.5-8.5S118.5,472.6,114.2,472.6L114.2,472.6z"/>
<path d="M469.7,134.1c39,0,58.5-46.7,30.5-74.7c-3.4-3.4-8.5-3.4-11.9,0s-3.4,8.5,0,11.9c25.5,25.5-12.7,62.8-38.2,38.2
	c-10.2-10.2-10.2-27.2,0-38.2c3.4-3.4,3.4-8.5,0-11.9s-8.5-3.4-11.9,0C411.2,86.5,430.7,134.1,469.7,134.1L469.7,134.1z"/>
<path d="M469.7,98.4c5.1,0,8.5-3.4,8.5-8.5V46.7c0-5.1-3.4-8.5-8.5-8.5s-8.5,3.4-8.5,8.5v43.3C461.2,95,464.6,98.4,469.7,98.4z"/>
<path d="M60.7,133.2h57.7c4.2,0,7.6-2.5,8.5-6.8l7.6-43.3c0.8-2.5,0-5.1-1.7-6.8c-1.7-1.7-4.2-3.4-6.8-3.4h-3.4V59.4
	c0-5.1-3.4-8.5-8.5-8.5s-8.5,3.4-8.5,8.5V73h-7.6V47.5c0-5.1-3.4-8.5-8.5-8.5s-8.5,3.4-8.5,8.5V73h-7.6V59.4c0-5.1-3.4-8.5-8.5-8.5
	c-5.1,0-8.5,3.4-8.5,8.5V73h-3.4c-2.5,0-5.1,0.8-6.8,2.5c-1.7,1.7-1.7,4.2-1.7,6.8l7.6,43.3C53.1,129.8,56.5,133.2,60.7,133.2
	L60.7,133.2z M111.7,116.2H67.5l-4.2-26.3h53.5L111.7,116.2z"/>
</svg>
