<?xml version="1.0" encoding="UTF-8" standalone="no"?>
<!-- Generator: Adobe Illustrator 24.0.0, SVG Export Plug-In . SVG Version: 6.00 Build 0)  -->

<svg
   version="1.1"
   id="Ebene_1"
   x="0px"
   y="0px"
   width="250.3"
   height="50"
   viewBox="0 0 250.3 50"
   xml:space="preserve"
   sodipodi:docname="logo-skoda.svg"
   inkscape:version="1.1.2 (0a00cf5339, 2022-02-04)"
   xmlns:inkscape="http://www.inkscape.org/namespaces/inkscape"
   xmlns:sodipodi="http://sodipodi.sourceforge.net/DTD/sodipodi-0.dtd"
   xmlns="http://www.w3.org/2000/svg"
   xmlns:svg="http://www.w3.org/2000/svg"><defs
   id="defs73" /><sodipodi:namedview
   id="namedview71"
   pagecolor="#ffffff"
   bordercolor="#666666"
   borderopacity="1.0"
   inkscape:pageshadow="2"
   inkscape:pageopacity="0.0"
   inkscape:pagecheckerboard="0"
   showgrid="false"
   inkscape:zoom="4.4319067"
   inkscape:cx="121.27963"
   inkscape:cy="33.05575"
   inkscape:window-width="2560"
   inkscape:window-height="960"
   inkscape:window-x="0"
   inkscape:window-y="27"
   inkscape:window-maximized="1"
   inkscape:current-layer="Ebene_1"
   width="250.3px" />
<style
   type="text/css"
   id="style2">
	.st0{fill:#818181;}
	.st1{fill:url(#path3112_1_);stroke:#818181;stroke-width:0.1425;stroke-linecap:square;stroke-miterlimit:2.8267;}
	.st2{fill:#FFFFFF;}
	.st3{fill:url(#path22-7_1_);stroke:#818181;stroke-width:0.1182;stroke-miterlimit:1.9975;}
	.st4{fill:url(#path26-4_1_);}
	.st5{fill:url(#path26-4-9_1_);}
	.st6{fill:#FFFFFF;stroke:#818181;stroke-width:0.1182;stroke-miterlimit:1.9975;}
</style>

<path
   d="M 0.58475095,43.47727 5.1638771,36.499626 H 31.722858 c 1.504493,0 2.485791,-0.934746 2.485791,-2.367558 v -4.049607 h -22.83025 c -6.8032809,0 -9.8123495,-2.865623 -9.8123495,-9.220377 v -2.74121 c 0,-4.734909 2.9436698,-7.600738 7.5882152,-7.600738 H 9.677583 v 10.217329 c 0,1.432812 0.9813,2.367352 2.485833,2.367352 h 22.11053 c 5.037085,0 8.046278,2.865829 8.046278,7.538531 v 3.61334 c 0,6.167722 -3.205493,9.220582 -9.812368,9.220582 z M 159.73764,36.375007 h 20.54054 c 3.4018,0 5.56049,-1.993701 5.56049,-5.108768 v -8.535074 c 0,-3.115065 -2.15869,-5.108766 -5.56049,-5.108766 h -20.54054 z m -8.24237,7.102263 V 10.520136 h 28.97942 c 8.63476,0 13.60657,4.734911 13.60657,12.584681 v 7.787565 c 0,7.849977 -4.97181,12.584888 -13.60657,12.584888 z m -39.94384,-7.102263 h 17.33544 c 3.13979,0 5.16768,-1.86908 5.16768,-4.797117 v -9.158375 c 0,-2.928035 -2.02789,-4.797116 -5.16768,-4.797116 h -17.33544 c -3.13978,0 -5.16769,1.869081 -5.16769,4.797116 v 9.15817 c 0,2.928242 2.02791,4.797322 5.16769,4.797322 z m 17.53154,7.102263 h -17.72764 c -8.37317,0 -13.214166,-4.610292 -13.214166,-12.273238 v -8.41066 c 0,-7.662945 4.840786,-12.273236 13.214166,-12.273236 h 17.72764 c 8.37318,0 13.21416,4.610291 13.21416,12.273236 v 8.41066 c 0,7.662946 -4.84078,12.273238 -13.21416,12.273238 z m 68.37536,0 19.42822,-32.957134 h 11.44851 l 19.42822,32.957134 h -9.41957 l -3.33691,-5.669451 h -16.55066 l -4.44716,-6.728406 -7.32678,12.397857 z m 16.74633,-12.771714 h 16.61659 l -8.30934,-14.0177 z M 17.789199,17.373159 13.079233,10.520136 h 28.455993 l -4.579187,6.853023 z M 51.390026,43.47727 V 10.520136 h 8.242581 v 12.83392 H 70.557072 L 84.752328,10.520136 H 95.676795 L 77.622053,26.905187 96.003894,43.47727 H 84.425229 L 70.229973,30.456318 H 59.632607 V 43.47727 Z"
   fill="#0e3a2f"
   id="path2"
   style="fill:#818181;fill-opacity:1;stroke-width:2.05981" />
</svg>
