<?xml version="1.0" encoding="UTF-8" standalone="no"?>
<!-- Generator: Adobe Illustrator 26.0.1, SVG Export Plug-In . SVG Version: 6.00 Build 0)  -->

<svg
   version="1.1"
   id="Ebene_1"
   x="0px"
   y="0px"
   viewBox="0 0 1280 207.1"
   style="enable-background:new 0 0 1280 207.1;"
   xml:space="preserve"
   sodipodi:docname="logo-comdok.svg"
   inkscape:version="1.1.2 (0a00cf5339, 2022-02-04)"
   xmlns:inkscape="http://www.inkscape.org/namespaces/inkscape"
   xmlns:sodipodi="http://sodipodi.sourceforge.net/DTD/sodipodi-0.dtd"
   xmlns="http://www.w3.org/2000/svg"
   xmlns:svg="http://www.w3.org/2000/svg"><defs
   id="defs9" /><sodipodi:namedview
   id="namedview7"
   pagecolor="#ffffff"
   bordercolor="#666666"
   borderopacity="1.0"
   inkscape:pageshadow="2"
   inkscape:pageopacity="0.0"
   inkscape:pagecheckerboard="0"
   showgrid="false"
   inkscape:zoom="1.0796875"
   inkscape:cx="640"
   inkscape:cy="103.27062"
   inkscape:window-width="2560"
   inkscape:window-height="960"
   inkscape:window-x="0"
   inkscape:window-y="27"
   inkscape:window-maximized="1"
   inkscape:current-layer="Ebene_1" />
<style
   type="text/css"
   id="style2">
	.st0{fill:#818181;}
</style>
<path
   class="st0"
   d="m 272.73712,35.602746 c -14.99825,-8.004248 -29.68566,-12.511495 -48.02549,-12.511495 -45.84958,0 -82.06297,33.104949 -82.06297,80.508749 0,50.51225 36.21339,80.50875 82.06297,80.50875 16.31934,0 33.4935,-6.45003 47.4038,-14.53199 l -7.61569,-13.59945 c -12.04523,6.9163 -26.18866,12.04523 -39.78811,12.04523 -35.98026,0 -61.46952,-28.5977 -61.46952,-64.34483 0,-35.747127 25.48926,-64.344829 61.46952,-64.344829 14.99825,0 27.97601,3.108446 40.02124,11.656672 z M 308.71738,103.6 c 0,-35.747128 25.48926,-64.34483 61.46952,-64.34483 35.98026,0 61.46951,28.597702 61.46951,64.34483 0,35.74713 -25.48925,64.34483 -61.46951,64.34483 -35.98026,0 -61.46952,-28.5977 -61.46952,-64.34483 z m -20.51574,0 c 0,50.51225 36.21339,80.50875 82.06297,80.50875 45.84957,0 82.06297,-33.10495 82.06297,-80.50875 -0.0777,-50.589957 -36.29111,-80.508749 -82.14068,-80.508749 -45.77187,0 -81.98526,33.104949 -81.98526,80.508749 z m 181.92179,77.32259 18.57297,3.10845 21.21514,-132.342086 h 0.46627 l 44.91704,129.233636 h 18.33983 L 621.66017,51.688954 h 0.46627 L 641.78736,184.03104 660.59345,180.92259 635.95902,26.199697 H 615.13243 L 564.85332,156.75442 518.14892,26.199697 H 498.25487 Z M 706.59845,40.964815 h 23.7019 c 41.34233,0 67.91955,22.769366 67.91955,61.702655 0,42.50799 -28.13144,63.49 -72.42679,63.49 H 705.27736 Z M 686.08271,180.92259 h 42.66342 c 50.04598,0 88.74613,-27.04348 88.74613,-79.34308 0,-37.767617 -24.16817,-75.379813 -83.61719,-75.379813 H 687.4038 Z M 856.8141,103.6 c 0,-35.747128 25.48926,-64.34483 61.46952,-64.34483 35.98026,0 61.46952,28.597702 61.46952,64.34483 0,35.74713 -25.48926,64.34483 -61.46952,64.34483 -35.98026,0 -61.46952,-28.5977 -61.46952,-64.34483 z m -20.59345,0 c 0,50.51225 36.21339,80.50875 82.06297,80.50875 45.84958,0 82.06298,-33.10495 82.06298,-80.50875 0,-50.512246 -36.2134,-80.508749 -82.06298,-80.508749 -45.84958,0 -82.06297,33.104949 -82.06297,80.508749 z m 190.47005,77.32259 h 19.1946 l 1.3211,-154.645182 h -19.1946 z m 96.1287,3.10845 14.5319,-12.74463 -66.8315,-69.55148 66.3653,-66.831584 -13.3663,-11.812095 -76.8564,79.109949 z"
   id="path4"
   style="stroke-width:0.777111" />
</svg>
