<?xml version="1.0" encoding="UTF-8" standalone="no"?>
<!-- Generator: Adobe Illustrator 26.0.1, SVG Export Plug-In . SVG Version: 6.00 Build 0)  -->

<svg
   version="1.1"
   id="Ebene_1"
   x="0px"
   y="0px"
   viewBox="0 0 67.5 15.1"
   style="enable-background:new 0 0 67.5 15.1;"
   xml:space="preserve"
   sodipodi:docname="logo-seepex.svg"
   inkscape:version="1.1.2 (0a00cf5339, 2022-02-04)"
   xmlns:inkscape="http://www.inkscape.org/namespaces/inkscape"
   xmlns:sodipodi="http://sodipodi.sourceforge.net/DTD/sodipodi-0.dtd"
   xmlns="http://www.w3.org/2000/svg"
   xmlns:svg="http://www.w3.org/2000/svg"><defs
   id="defs13" /><sodipodi:namedview
   id="namedview11"
   pagecolor="#ffffff"
   bordercolor="#666666"
   borderopacity="1.0"
   inkscape:pageshadow="2"
   inkscape:pageopacity="0.0"
   inkscape:pagecheckerboard="0"
   showgrid="false"
   inkscape:zoom="20.474074"
   inkscape:cx="33.75"
   inkscape:cy="7.5461288"
   inkscape:window-width="2560"
   inkscape:window-height="960"
   inkscape:window-x="0"
   inkscape:window-y="27"
   inkscape:window-maximized="1"
   inkscape:current-layer="Ebene_1" />
<style
   type="text/css"
   id="style2">
	.st0{fill:#818181;}
</style>
<g
   id="g8"
   transform="matrix(0.89050985,0,0,0.89050985,3.6788692,0.82117616)">
	<g
   id="g6">
		<path
   class="st0"
   d="M 7.1,10.4 C 7.1,11.3 6.3,12 5.2,12 4,12 3.3,11.2 3.3,10.3 V 10 C 3.3,9.8 3.1,9.6 2.9,9.6 h -2 C 0.7,9.6 0.5,9.8 0.5,10 v 0.3 c 0,2.4 2,4.3 4.7,4.3 C 8,14.6 10,13 10,10.4 10,8.1 8.5,7 6.4,6.4 5.3,6.1 3.5,5.9 3.5,4.4 3.4,3.7 4.1,3 5.2,3 6.3,3 7,3.7 7,4.6 6.9,4.8 7.1,5 7.3,5 H 9.2 C 9.4,5 9.6,4.8 9.6,4.6 9.6,2.2 7.7,0.4 5.1,0.4 2.5,0.4 0.6,2.2 0.6,4.5 c 0,2.2 1.5,3.3 3.6,3.9 1.1,0.5 2.9,0.6 2.9,2 v 0 z m 7.4,-1.3 c 0,-0.1 0.1,-0.2 0.2,-0.2 h 4 c 0.2,0 0.4,-0.2 0.4,-0.4 v -2 c 0,-0.2 -0.2,-0.4 -0.4,-0.4 h -4 C 14.6,6.1 14.5,6 14.5,5.9 V 3.6 c 0,-0.1 0.1,-0.2 0.2,-0.2 h 4.6 c 0.2,0 0.4,-0.2 0.4,-0.4 V 1 C 19.7,0.8 19.5,0.6 19.3,0.6 H 12.2 C 12,0.6 11.8,0.8 11.8,1 v 13 c 0,0.2 0.2,0.4 0.4,0.4 h 7.2 c 0.2,0 0.4,-0.2 0.4,-0.4 v -2 c 0,-0.2 -0.2,-0.4 -0.4,-0.4 h -4.7 c -0.1,0 -0.2,-0.1 -0.2,-0.2 V 9.1 Z m 10.1,0 c 0,-0.1 0.1,-0.2 0.2,-0.2 h 4 c 0.2,0 0.4,-0.2 0.4,-0.4 v -2 C 29.2,6.3 29,6.1 28.8,6.1 h -4 C 24.7,6.1 24.6,6 24.6,5.9 V 3.6 c 0,-0.1 0.1,-0.2 0.2,-0.2 h 4.6 c 0.2,0 0.4,-0.2 0.4,-0.4 V 1 c 0,-0.2 -0.2,-0.4 -0.4,-0.4 h -7.1 c -0.2,0 -0.4,0.2 -0.4,0.4 v 13 c 0,0.2 0.2,0.4 0.4,0.4 h 7.2 c 0.2,0 0.4,-0.2 0.4,-0.4 v -2 c 0,-0.2 -0.2,-0.4 -0.4,-0.4 h -4.7 c -0.1,0 -0.2,-0.1 -0.2,-0.2 V 9.1 Z M 32.4,0.7 C 32.2,0.7 32,0.9 32,1.1 v 13 c 0,0.2 0.2,0.4 0.4,0.4 h 2 c 0.2,0 0.4,-0.2 0.4,-0.4 v -5 C 34.8,9 34.9,8.9 35,8.9 h 1.8 c 2.3,0 4.1,-1.8 4.1,-4.1 0,-2.3 -1.9,-4.1 -4.1,-4.1 h -4.4 z m 4.3,2.7 c 0.7,0 1.4,0.6 1.4,1.4 0,0.8 -0.6,1.4 -1.4,1.4 H 34.9 C 34.8,6.2 34.7,6.1 34.7,6 V 3.6 c 0,-0.1 0.1,-0.2 0.2,-0.2 h 1.8 z m 8.4,5.7 c 0,-0.1 0.1,-0.2 0.2,-0.2 h 4 c 0.2,0 0.4,-0.2 0.4,-0.4 v -2 c 0,-0.2 -0.2,-0.4 -0.4,-0.4 h -4 C 45.2,6.1 45.1,6 45.1,5.9 V 3.6 c 0,-0.1 0.1,-0.2 0.2,-0.2 h 4.6 c 0.2,0 0.4,-0.2 0.4,-0.4 V 1 c 0,-0.2 -0.2,-0.4 -0.4,-0.4 h -7.1 c -0.2,0 -0.4,0.2 -0.4,0.4 v 13 c 0,0.2 0.2,0.4 0.4,0.4 H 50 c 0.2,0 0.4,-0.2 0.4,-0.4 v -2 c 0,-0.2 -0.2,-0.4 -0.4,-0.4 h -4.7 c -0.1,0 -0.2,-0.1 -0.2,-0.2 V 9.1 Z m 21.6,2.5 c 0,-0.2 -0.2,-0.4 -0.4,-0.4 h -2.4 c -0.2,0 -0.4,0.2 -0.4,0.4 V 14 c 0,0.2 0.2,0.4 0.4,0.4 h 2.4 c 0.2,0 0.4,-0.2 0.4,-0.4 V 11.6 Z M 61.7,1.2 C 61.8,0.9 61.6,0.7 61.4,0.7 H 59 c -0.2,0 -0.3,0.1 -0.4,0.3 -0.7,1.9 -1.4,3.6 -2.8,5.4 -1.4,1.8 -2.1,2.7 -4,7.5 -0.1,0.3 0.1,0.5 0.3,0.5 h 2.4 c 0.2,0 0.4,-0.1 0.4,-0.3 1.3,-3.3 1.5,-4 2.9,-5.8 1.5,-1.7 2.2,-2.8 3.9,-7.1 v 0 z M 54.2,6 c 0.1,0.3 0.2,0.4 0.5,0 0.6,-1 1.5,-2.3 0.8,-4.1 L 55.2,1 C 55.1,0.7 55,0.7 54.8,0.7 H 52.4 C 52.1,0.7 52,1 52.1,1.2 L 54.2,6 Z m 7.3,8.4 c 0.3,0 0.4,-0.3 0.3,-0.5 L 59.6,9 c -0.1,-0.3 -0.2,-0.4 -0.5,0 -0.6,1 -1.5,2.3 -0.9,4 l 0.4,1.1 c 0.1,0.3 0.2,0.3 0.4,0.3 h 2.5 z"
   id="path4" />
	</g>
</g>
</svg>
