<?xml version="1.0" encoding="utf-8"?>
<!-- Generator: Adobe Illustrator 27.0.1, SVG Export Plug-In . SVG Version: 6.00 Build 0)  -->
<svg version="1.1" id="Ebene_1" xmlns="http://www.w3.org/2000/svg" xmlns:xlink="http://www.w3.org/1999/xlink" x="0px" y="0px"
	 viewBox="0 0 542.3 563.6" style="enable-background:new 0 0 542.3 563.6;" xml:space="preserve">
<path d="M255,61.1H289c5.1,0,8.5-3.4,8.5-8.5c0-5.1-3.4-8.5-8.5-8.5H255c-5.1,0-8.5,3.4-8.5,8.5C246.5,57.7,249.9,61.1,255,61.1z"/>
<path d="M272,483.6c-12.7,0-23.8,10.2-23.8,23.8c0,12.7,10.2,23.8,23.8,23.8c12.7,0,23.8-10.2,23.8-23.8
	C295.8,494.7,284.7,483.6,272,483.6z M272,514.2c-3.4,0-6.8-2.5-6.8-6.8c0-3.4,2.5-6.8,6.8-6.8s6.8,2.5,6.8,6.8
	C278.8,510.8,275.4,514.2,272,514.2z"/>
<path d="M400.1,79.8H143c-5.1,0-8.5,3.4-8.5,8.5v125.6v257.1c0,5.1,3.4,8.5,8.5,8.5h257.1c5.1,0,8.5-3.4,8.5-8.5V88.2
	C408.6,83.2,405.2,79.8,400.1,79.8z M298.3,283.4v36.5h-52.6v-36.5H298.3z M254.2,266.4l-5.9-39c16.1,2.5,29.7,2.5,45.8,0l-5.9,39
	H254.2z M303.4,208.7c16.1-25.5,24.6-68.7,26.3-112h61.9C388.2,150.2,351.8,195.2,303.4,208.7L303.4,208.7z M312.7,96.7
	C311,168.9,289,213,272,213c-16.1,0-39-44.1-40.7-116.2L312.7,96.7z M214.3,96.7c0.8,43.3,10.2,86.5,26.3,112
	c-48.4-13.6-84.8-58.5-88.2-112H214.3z M152.4,225.7c17,8.5,7.6,22.1,20.4,23.8c36.5,4.2,27.2,46.7,0.8,46.7h-21.2L152.4,225.7z
	 M152.4,463.3v-80.6c11.9-14.4,28.8-13.6,28-13.6c40.7,0,40.7,61.9,91.6,61.9c52.6,0,51.8-63.6,93.3-61.9c10.2,0,19.5,5.1,26.3,13.6
	v79.8H152.4L152.4,463.3z M391.6,296.1h-23.8c-11.9,0-22.1-10.2-22.1-22.1c0-20.4,22.1-21.2,25.5-22.9c2.5-0.8,4.2-3.4,5.1-5.9
	c1.7-8.5,7.6-14.4,15.3-17L391.6,296.1z M391.6,210.4c-13.6,2.5-25.5,11.9-30.5,25.5c-20.4,5.1-32.2,18.7-32.2,37.3
	c0,21.2,17.8,39,39,39h23.8v48.4c-7.6-5.1-17-7.6-26.3-7.6c-52.6-1.7-53.5,61.9-94.2,61.9c-40.7,0-39.9-61.9-91.6-61.9
	c-1.7,0-14.4-0.8-28,7.6v-47.5h21.2c22.1,0,39.9-17.8,39.9-39.9c0-20.4-12.7-34.8-33.9-39c-4.2-12.7-14.4-22.1-28-25.5v-50.9
	c17,31.4,45,56,78.9,67l5.9,43.3c-5.1,0-8.5,3.4-8.5,8.5v53.5c0,5.1,3.4,8.5,8.5,8.5h69.6c5.1,0,8.5-3.4,8.5-8.5v-53.5
	c0-5.1-3.4-8.5-8.5-8.5l5.9-43.3c33.9-11,61.9-35.6,78.9-67l0,52.6L391.6,210.4z"/>
<path d="M531.6,354.7c-3.4-2.5-9.3-2.5-11.9,1.7c-27.2,28.8-37.3,64.5-70.4,58.5V313.1h30.5c45.8,0,53.5-67,8.5-77.2
	c-0.8-10.2-5.9-19.5-14.4-26.3c-6.8-5.9-16.1-8.5-24.6-8.5V33.9c0-14.4-11.9-25.5-25.5-25.5H120.1c-14.4,0-25.5,11.9-25.5,25.5
	v163.8c-22.9-3.4-44.1,11.9-46.7,34.8c-46.7,9.3-40.7,79.8,8.5,79.8h37.3v101.8c-33.1,5.9-43.3-29.7-70.4-58.5
	c-2.5-3.4-8.5-4.2-11.9-1.7s-4.2,8.5-1.7,11.9C37,394.5,49.7,436.1,93,431v95c0,14.4,11.9,25.5,25.5,25.5H423
	c14.4,0,25.5-11.9,25.5-25.5l0-94.2c44.1,5.1,56-36.5,84-65.3C536.7,363.2,535.9,358.1,531.6,354.7L531.6,354.7z M463.8,223.2
	c5.9,4.2,8.5,11.9,8.5,19.5c0,5.1,3.4,9.3,8.5,9.3c28.8,0,28.8,44.1,0,44.1h-30.5v-77.2C454.4,218.9,459.5,220.6,463.8,223.2
	L463.8,223.2z M55.6,296.1c-30.5,0-30.5-46.7,0-46.7c2.5,0,4.2-0.8,5.9-2.5c1.7-1.7,2.5-4.2,2.5-6.8c-1.7-17,14.4-28.8,29.7-24.6
	v80.6L55.6,296.1z M423.9,534.5H120.1c-5.1,0-8.5-4.2-8.5-8.5V33.9c0-5.1,4.2-8.5,8.5-8.5h304.6c5.1,0,8.5,4.2,8.5,8.5v491.3
	C433.2,530.3,429,534.6,423.9,534.5L423.9,534.5z"/>
<path d="M510.4,56c5.1,0,8.5-3.4,8.5-8.5c0-11-17-11-17,0C501.9,51.8,505.3,56,510.4,56L510.4,56z"/>
<path d="M493.5,98.4c3.4,1.7,9.3-0.8,11-5.1c1.7-4.2-0.8-9.3-5.1-11c-4.2-1.7-9.3,0.8-11,5.1C486.7,92.5,489.2,97.6,493.5,98.4z"/>
<path d="M486.7,120.5c3.4,1.7,9.3-0.8,11-5.1c1.7-4.2-0.8-9.3-5.1-11c-4.2-1.7-9.3,0.8-11,5.1C479.9,114.5,481.6,118.8,486.7,120.5z
	"/>
<path d="M501.1,77.2c5.1,1.7,9.3-1.7,11-5.1c1.7-4.2-0.8-9.3-5.1-11c-4.2-1.7-9.3,0.8-11,5.1C493.5,71.3,496,75.5,501.1,77.2z"/>
<path d="M481.6,142.6c7.6,0,11-8.5,5.9-14.4c-5.1-5.1-14.4-1.7-14.4,5.9C473.1,139.2,477.3,142.5,481.6,142.6L481.6,142.6z"/>
<path d="M31,56c5.1,0,8.5-4.2,8.5-8.5c0-7.6-9.3-11-14.4-5.9c-1.7,1.7-2.5,3.4-2.5,5.9C22.5,51.8,26.8,56,31,56L31,56z"/>
<path d="M42.9,82.3c-4.2,1.7-6.8,6.8-5.1,11c0.8,3.4,4.2,5.9,7.6,5.9c5.9,0,10.2-5.9,8.5-11C52.2,84,47.2,81.5,42.9,82.3L42.9,82.3z
	"/>
<path d="M36.1,61.1c-9.3,2.5-6.8,17,2.5,17c5.9,0,10.2-5.9,7.6-11C45.5,61.9,40.4,59.4,36.1,61.1L36.1,61.1z"/>
<path d="M49.7,104.4c-4.2,1.7-6.8,5.9-5.1,11c0.8,3.4,4.2,5.9,7.6,5.9c5.9,0,10.2-5.9,8.5-11C59,105.2,54.8,102.7,49.7,104.4
	L49.7,104.4z"/>
<path d="M53.9,128.1c-1.7,1.7-2.5,4.2-2.5,5.9c0,4.2,3.4,8.5,8.5,8.5c4.2,0,8.5-3.4,8.5-8.5C68.4,126.4,59,123,53.9,128.1
	L53.9,128.1z"/>
</svg>
