<?xml version="1.0" encoding="utf-8"?>
<!-- Generator: Adobe Illustrator 26.0.1, SVG Export Plug-In . SVG Version: 6.00 Build 0)  -->
<svg version="1.1" xmlns="http://www.w3.org/2000/svg" xmlns:xlink="http://www.w3.org/1999/xlink" x="0px" y="0px"
	 viewBox="0 0 120.39 66.32" style="enable-background:new 0 0 120.39 66.32;" xml:space="preserve">
<style type="text/css">
	.st0{fill:#FFFFFF;}
	.st1{display:none;}
	.st2{display:inline;fill:none;stroke:#000000;stroke-width:8;stroke-miterlimit:10;}
	.st3{display:inline;}
	.st4{display:inline;fill:none;stroke:#000000;stroke-miterlimit:10;}
	.st5{fill:#2D5352;}
	.st6{fill:#819897;}
</style>
<g id="Ebene_1">
	<g id="Pfeil_25">
	</g>
	<path class="st0" d="M95.52,11.05v55.26H83.86L69.93,42.23c-1.92-3.53-5.54-5.98-9.81-5.98c-6.1,0-11.05,4.95-11.05,11.05
		c0,6.1,4.95,11.05,11.05,11.05c4.08,0,7.65-2.22,9.56-5.52l4.37,7.55c-3.52,3.65-8.44,5.93-13.91,5.93
		c-4.35,0-8.33-1.46-11.55-3.89c-4.63,2.47-9.89,3.89-15.51,3.89C14.76,66.32,0,51.47,0,33.16C0,15,14.89,0.27,32.85,0.01V0h25.77
		l-6.38,11.05H33.3c0,0-0.21,0-0.31,0c-12.21,0-22.1,9.9-22.1,22.11c0,12.21,9.91,22.11,22.12,22.11c3.16,0,6.16-0.69,8.88-1.9
		c-0.48-1.07-0.84-3.52-0.84-3.52c-0.14-0.94-0.2-1.89-0.2-2.87c0-10.68,8.74-19.34,19.42-19.34c7.28,0,13.77,4.03,17.07,9.98
		l7.13,11.79V11.05H58.61L64.99,0h55.4v11.05H95.52z"/>
	<text transform="matrix(1 0 0 1 -18.1752 132.9064)" style="display:none;fill:#C606C6; font-family:'DINOffc'; font-size:16px;">Concepts and Training</text>
</g>
<g id="Ebene_2" class="st1">
	<path class="st2" d="M194.09,1899.84H65.43c0,0-24.88-0.75-25,29.5s25,30,25,30s17.45,0.8,24.83-19.92"/>
	<line class="st2" x1="-42.07" y1="1901.34" x2="-42.07" y2="1841.34"/>
	<circle class="st2" cx="104.43" cy="1944.34" r="15"/>
	<line class="st2" x1="119.42" y1="1944.34" x2="119.24" y2="1956.84"/>
	<path class="st2" d="M119.24,1956.83c0,1.38,1.12,2.5,2.5,2.5c0,0,1.34,0.22,1.92-0.64"/>
	<path class="st2" d="M121.67,1953.83"/>
	<path class="st3" d="M154.17,1858.57c-2.89-11.4-10.17-19.51-24.45-19.51c-21.02,0-29.81,18.54-29.81,37.36
		c0,18.82,8.79,37.36,29.81,37.36c15.38,0,23.49-11.4,25-25.68h16.76c-1.51,23.49-18,39.7-41.76,39.7
		c-29.26,0-46.98-23.22-46.98-51.38c0-27.88,17.72-51.37,46.98-51.37c22.25,0,39.42,12.36,41.62,33.51H154.17z"/>
	<path class="st3" d="M88.27,2058.94c0,3.85,0.83,5.36,3.71,5.36h1.65c0.69,0,1.38-0.13,2.2-0.27v10.85
		c-2.33,0.82-7.28,1.78-9.89,1.78c-6.46,0-10.85-2.2-12.09-8.66c-6.18,6.05-16.21,8.66-24.58,8.66c-12.78,0-24.31-6.87-24.31-20.74
		c0-17.72,14.15-20.6,27.33-22.12c11.4-2.2,21.29-0.68,21.29-10.03c0-8.24-8.52-9.61-14.7-9.61c-8.79,0-14.97,3.57-15.66,11.26
		H27.56c1.1-18.27,16.48-23.63,32.28-23.63c13.87,0,28.43,5.63,28.43,20.61V2058.94z M72.61,2039.16
		c-4.8,3.16-12.22,3.03-19.23,4.26c-6.73,1.1-12.77,3.57-12.77,11.81c0,7.14,8.93,9.06,14.42,9.06c6.87,0,17.58-3.57,17.58-13.46
		V2039.16z"/>
	<path class="st3" d="M177.39,1827.39h79.4v14.84h-31.18v83.24h-17.17v-83.24h-31.05V1827.39z"/>
	<path class="st4" d="M-39.57,2217.84h4c0,0-1.56,9-10.95,12h-7.05c0,0-9.5-1.38-11.5-11v-19.5c0,0,0.97-7.5,12.5-11.5h17.5v2.5
		l-17.68,0.38c0,0-7.34,2.94-7.83,7.74c-0.49,4.81,0,19.27,0,19.27s0.36,6.32,7.25,8.37l6.36,0.04
		C-46.97,2226.14-40.1,2224.62-39.57,2217.84z"/>
	<polygon class="st4" points="-53.07,2187.84 29.93,2187.84 29.93,2192.84 16.93,2192.84 16.93,2230.84 12.93,2230.84 
		12.93,2192.84 -53.07,2192.84 	"/>
	<polyline class="st4" points="13.43,1811.84 -82.07,1811.84 -82.07,1821.84 13.93,1821.84 13.93,1811.34 	"/>
	<g class="st3">
		<g>
			<g>
				<path class="st5" d="M314.34,2806.78v-3.99l-0.09-3.9c-0.09-2.13-0.18-4.61-0.36-6.39c-0.71-8.51-3.46-13.22-9.22-15.79
					c-3.64-1.6-6.03-1.86-16.85-1.86c-10.11,0-14.19,0.71-17.74,3.19c-3.8,2.58-5.26,5.62-5.54,12.58l11.32,0
					c0.72-4.91,3.7-6.02,12.93-6.02c7.36,0,10.11,0.71,11.71,3.02c1.28,1.77,1.8,3.8,2,9.56c-2.5-0.53-5.81-0.77-10.34-0.82v-0.02
					c-0.19,0-0.44,0-0.63,0c-0.17,0-0.28-0.01-0.46-0.01v0.01c-0.87-0.01-1.73-0.01-2.74-0.01c-10.11,0-14.19,0.71-17.74,3.19
					c-4,2.72-5.33,6.18-5.5,13.92l-0.09,0c0.02,1.06-0.02,3.47,0.01,4.19h0.02c0.06,1.34,0.14,2.25,0.25,3.51
					c0.35,5.41,2.4,9.31,5.85,11.44c3.28,1.95,6.21,2.48,14.99,2.48c2.28,0,28.19,0,28.19,0c0.02-0.85,0-11.7,0-11.7
					S314.43,2809.35,314.34,2806.78z M302.6,2816.06c0,7.32-1.94,9.05-11.52,9.21v0.02c-0.9,0.02-1.77,0.04-2.82,0.04
					c-9.99,0-11.76-1.07-11.96-8.11h-0.01c0-0.18-0.01-0.35-0.01-0.53c0-0.23-0.03-1.01-0.05-1.81c0.1-7.25,2.34-8.78,13.08-8.78
					c0.74,0,1.37,0.02,2.02,0.03c9.31,0.19,11.27,1.95,11.27,9.19V2816.06z"/>
			</g>
			<g>
				<path class="st6" d="M362.09,2822.97c-0.5,2.79-0.21,3.96,2.67,3.96c4.06,0,4.49-2.88,5.36-6.13l0.63-2.52h11.02
					c0.29-3.51,0.42-7.44,0.42-11.43c0-1.91-0.08-3.39-0.11-5.06h-15.48L362.09,2822.97z M381.24,2790.44
					c-0.76-4.6-2.06-7.9-4.29-10.32c-3.55-3.81-8.78-5.27-19.16-5.27c0,0-1.33,0-3.9,0.09h-4l-3.9,0.09
					c-2.13,0.09-4.61,0.18-6.39,0.36c-8.51,0.73-13.22,3.54-15.79,9.45c-1.6,3.73-1.86,9.21-1.86,20.29
					c0,10.36,0.71,20.59,3.19,24.23c3.02,4.54,6.65,5.81,16.41,5.72h2.04l4.18-0.1c-1.89-1.95-2.68-4.98-1.64-9.85l4.96-23.34h-6.33
					l2.41-11.35h6.33l1.25-5.9l15.5,0l-1.25,5.9H381.24z"/>
			</g>
			<path class="st5" d="M246.57,2790.63c-0.55-5.17-2.93-6.02-11.83-6.02c-13.66,0-14.37,0.89-14.37,17.65
				c0,14.55,0.27,17.47,2.13,20.04c1.6,2.31,4.34,3.02,11.71,3.02c10.06,0,12.7-1.22,13.08-7.34c0-0.04,0,0,0,0h11.22
				c0,0,0-0.05,0,0c-0.15,7.91-1.54,11.16-5.58,13.91c-3.55,2.48-7.63,3.19-17.74,3.19c-10.82,0-13.22-0.26-16.85-1.86
				c-5.77-2.57-8.51-7.27-9.23-15.79c-0.18-1.78-0.26-4.26-0.35-6.39l-0.09-3.9v-3.99c-0.09-2.57-0.09-3.9-0.09-3.9
				c0-10.38,1.42-15.61,5.14-19.16c4.52-4.26,8.87-5.23,23.15-5.23c8.78,0,11.71,0.53,14.99,2.48c3.46,2.13,5.5,6.03,5.86,11.44
				c0.06,0.69,0.11,1.26,0.16,1.85"/>
		</g>
		<g>
			<path class="st5" d="M216.38,2853.75v0.48c0,2.1-0.95,2.87-3.61,2.87c-3.37,0-4.12-0.82-4.12-4.49c0-3.5,0.82-4.43,3.91-4.43
				c2.83,0,3.67,0.71,3.69,3.07h-1.7c0.02-1.4-0.35-1.69-2.05-1.69c-1.84,0-2.1,0.41-2.1,3.13c0,2.65,0.3,3.04,2.35,3.04
				c1.66,0,1.94-0.28,1.94-1.97H216.38z"/>
			<path class="st5" d="M225.88,2852.29c0,4.04-0.63,4.81-3.91,4.81c-3.43,0-4.06-0.71-4.06-4.6c0-3.58,0.69-4.32,4-4.32
				C225.13,2848.18,225.88,2848.96,225.88,2852.29z M219.68,2852.63c0,2.76,0.24,3.09,2.23,3.09c1.94,0,2.2-0.37,2.2-3.11
				c0-2.72-0.24-3.05-2.22-3.05C219.92,2849.56,219.68,2849.89,219.68,2852.63z"/>
			<path class="st5" d="M229.6,2848.29l-0.06,1.34l0.04,0.02c0.41-1.01,1.29-1.47,2.76-1.47c1.49,0,2.46,0.41,2.87,1.19
				c0.21,0.37,0.26,0.82,0.26,1.83v5.79h-1.71v-5.38c0-1.71-0.28-2.03-1.79-2.03c-1.64,0-2.33,0.65-2.33,2.22v5.2h-1.75v-8.7H229.6z
				"/>
			<path class="st5" d="M245.27,2853.75v0.48c0,2.1-0.95,2.87-3.61,2.87c-3.37,0-4.12-0.82-4.12-4.49c0-3.5,0.82-4.43,3.91-4.43
				c2.83,0,3.67,0.71,3.69,3.07h-1.69c0.02-1.4-0.35-1.69-2.05-1.69c-1.84,0-2.1,0.41-2.1,3.13c0,2.65,0.3,3.04,2.35,3.04
				c1.66,0,1.94-0.28,1.94-1.97H245.27z"/>
			<path class="st5" d="M254.62,2854.27v0.34c0,1.82-0.99,2.5-3.76,2.5c-3.33,0-4.06-0.82-4.06-4.6c0-3.37,0.84-4.32,3.84-4.32
				c2.46,0,3.35,0.45,3.78,1.9c0.17,0.58,0.2,1.08,0.2,2.87h-6.07v0.26c0,2.1,0.39,2.55,2.22,2.55c1.84,0,2.12-0.19,2.12-1.49
				H254.62z M252.9,2851.79c-0.02-1.16-0.04-1.3-0.19-1.62c-0.24-0.54-0.69-0.69-1.99-0.69c-1.81,0-2.14,0.37-2.16,2.31H252.9z"/>
			<path class="st5" d="M258.34,2848.29l-0.06,1.19l0.04,0.02c0.52-0.99,1.25-1.32,2.83-1.32c2.53,0,3.35,1.08,3.35,4.4
				c0,3.46-0.78,4.53-3.35,4.53c-1.55,0-2.23-0.32-2.74-1.27h-0.04v4.88h-1.73v-12.42H258.34z M258.4,2852.67
				c0,2.4,0.45,3.04,2.18,3.04c1.81,0,2.16-0.5,2.16-3.09c0-2.55-0.37-3.05-2.18-3.05C258.77,2849.56,258.4,2850.1,258.4,2852.67z"
				/>
			<path class="st5" d="M271.72,2849.63h-3.33v4.81c0,1.06,0.2,1.3,1.08,1.3c0.89,0,1.12-0.32,1.12-1.56c0-0.09,0-0.22-0.02-0.41
				h1.49c0.02,0.24,0.02,0.52,0.02,0.6c0,1.99-0.73,2.74-2.66,2.74c-2.14,0-2.74-0.54-2.74-2.5v-4.97h-1.17v-1.34h1.17v-2.01h1.71
				v2.01h3.33V2849.63z"/>
			<path class="st5" d="M278.7,2850.64c-0.07-1.14-0.22-1.21-2.05-1.21c-1.62,0-1.92,0.19-1.92,1.15c0,0.73,0.15,1.02,0.54,1.15
				c0.13,0.04,0.37,0.06,0.67,0.07l1.06,0.06c1.68,0.09,1.68,0.09,2.05,0.17c1.1,0.24,1.6,0.99,1.6,2.37c0,2.07-0.93,2.7-3.95,2.7
				c-2.83,0-3.74-0.61-3.74-2.5v-0.37h1.77c-0.02,0.15-0.02,0.28-0.02,0.34c0,1.02,0.39,1.29,1.97,1.29c1.83,0,2.25-0.24,2.25-1.34
				c0-0.97-0.26-1.21-1.25-1.23c-3.91-0.04-4.66-0.45-4.66-2.57c0-2.01,0.78-2.53,3.76-2.53c2.83,0,3.6,0.52,3.58,2.46H278.7z"/>
			<path class="st5" d="M287.44,2850.77c0.02-2.07,0.73-2.59,3.5-2.59c3.04,0,3.87,0.67,3.87,3.09v5.72h-1.71l0.09-1.06l-0.04-0.02
				c-0.5,0.91-1.17,1.19-2.79,1.19c-2.44,0-3.28-0.67-3.28-2.66c0-2.03,0.86-2.74,3.32-2.74c1.64,0,2.33,0.24,2.66,0.93h0.04v-1.23
				c0-1.68-0.34-2.03-2.01-2.03c-1.53,0-1.88,0.24-1.92,1.25v0.15H287.44z M288.85,2854.23c0,1.3,0.35,1.56,2.07,1.56
				c1.66,0,2.22-0.35,2.22-1.42c0-1.17-0.47-1.47-2.27-1.47C289.28,2852.91,288.85,2853.19,288.85,2854.23z"/>
			<path class="st5" d="M298.89,2848.29l-0.06,1.34l0.04,0.02c0.41-1.01,1.29-1.47,2.76-1.47c1.49,0,2.46,0.41,2.87,1.19
				c0.21,0.37,0.26,0.82,0.26,1.83v5.79h-1.71v-5.38c0-1.71-0.28-2.03-1.79-2.03c-1.64,0-2.33,0.65-2.33,2.22v5.2h-1.75v-8.7H298.89
				z"/>
			<path class="st5" d="M314.32,2856.99h-1.68l0.06-1.27l-0.04-0.02c-0.45,1.02-1.19,1.4-2.76,1.4c-1.17,0-2.07-0.3-2.57-0.84
				c-0.61-0.65-0.82-1.6-0.82-3.67c0-3.35,0.8-4.41,3.28-4.41c1.64,0,2.42,0.35,2.78,1.29l0.04-0.02v-4.88h1.71V2856.99z
				 M308.27,2852.48c0,2.7,0.35,3.24,2.12,3.24c1.88,0,2.22-0.5,2.22-3.3c0-2.29-0.45-2.85-2.25-2.85
				C308.64,2849.57,308.27,2850.11,308.27,2852.48z"/>
			<path class="st5" d="M327.58,2849.63h-3.33v4.81c0,1.06,0.2,1.3,1.08,1.3c0.89,0,1.12-0.32,1.12-1.56c0-0.09,0-0.22-0.02-0.41
				h1.49c0.02,0.24,0.02,0.52,0.02,0.6c0,1.99-0.73,2.74-2.66,2.74c-2.14,0-2.74-0.54-2.74-2.5v-4.97h-1.17v-1.34h1.17v-2.01h1.71
				v2.01h3.33V2849.63z"/>
			<path class="st5" d="M334.08,2850.77c-0.02-0.95-0.35-1.28-1.25-1.28c-1.34,0-1.81,0.6-1.81,2.31v5.18h-1.71v-8.7h1.71
				l-0.13,1.12l0.04,0.02c0.56-0.95,1.21-1.3,2.42-1.3c1.65,0,2.33,0.76,2.35,2.65"/>
			<path class="st5" d="M336.44,2850.77c0.02-2.07,0.73-2.59,3.5-2.59c3.04,0,3.87,0.67,3.87,3.09v5.72h-1.71l0.09-1.06l-0.04-0.02
				c-0.5,0.91-1.17,1.19-2.79,1.19c-2.44,0-3.28-0.67-3.28-2.66c0-2.03,0.86-2.74,3.32-2.74c1.64,0,2.33,0.24,2.66,0.93h0.04v-1.23
				c0-1.68-0.34-2.03-2.01-2.03c-1.53,0-1.88,0.24-1.92,1.25v0.15H336.44z M337.85,2854.23c0,1.3,0.35,1.56,2.07,1.56
				c1.66,0,2.22-0.35,2.22-1.42c0-1.17-0.47-1.47-2.27-1.47C338.28,2852.91,337.85,2853.19,337.85,2854.23z"/>
			<path class="st5" d="M347.89,2846.18h-1.71v-1.62h1.71V2846.18z M347.89,2856.99h-1.71v-8.7h1.71V2856.99z"/>
			<path class="st5" d="M351.92,2848.29l-0.06,1.34l0.04,0.02c0.41-1.01,1.29-1.47,2.76-1.47c1.49,0,2.46,0.41,2.87,1.19
				c0.21,0.37,0.26,0.82,0.26,1.83v5.79h-1.71v-5.38c0-1.71-0.28-2.03-1.79-2.03c-1.64,0-2.33,0.65-2.33,2.22v5.2h-1.75v-8.7H351.92
				z"/>
			<path class="st5" d="M361.84,2846.18h-1.71v-1.62h1.71V2846.18z M361.84,2856.99h-1.71v-8.7h1.71V2856.99z"/>
			<path class="st5" d="M365.87,2848.29l-0.06,1.34l0.04,0.02c0.41-1.01,1.29-1.47,2.76-1.47c1.49,0,2.46,0.41,2.87,1.19
				c0.21,0.37,0.26,0.82,0.26,1.83v5.79h-1.71v-5.38c0-1.71-0.28-2.03-1.79-2.03c-1.64,0-2.33,0.65-2.33,2.22v5.2h-1.75v-8.7H365.87
				z"/>
			<path class="st5" d="M381.64,2857.34c0,2.68-0.93,3.52-3.95,3.52c-1.94,0-2.91-0.35-3.32-1.23c-0.19-0.37-0.24-0.76-0.24-1.68
				h1.64c0.02,1.32,0.3,1.55,1.97,1.55c1.68,0,2.18-0.43,2.18-1.86v-1.86h-0.04c-0.37,0.91-1.17,1.3-2.68,1.3
				c-1.17,0-2.09-0.32-2.61-0.88c-0.58-0.65-0.8-1.56-0.8-3.32c0-2.35,0.19-3.19,0.86-3.89c0.52-0.54,1.38-0.82,2.57-0.82
				c1.55,0,2.25,0.37,2.74,1.43l0.04-0.02l-0.08-1.3h1.71V2857.34z M375.57,2852.57c0,2.63,0.34,3.11,2.12,3.11
				c1.81,0,2.2-0.56,2.2-3.09c0-2.53-0.35-3.02-2.2-3.02C375.91,2849.57,375.57,2850.04,375.57,2852.57z"/>
		</g>
	</g>
</g>
</svg>
