<?xml version="1.0" encoding="utf-8"?>
<!-- Generator: Adobe Illustrator 26.0.1, SVG Export Plug-In . SVG Version: 6.00 Build 0)  -->
<svg version="1.1" id="Ebene_1" xmlns="http://www.w3.org/2000/svg" xmlns:xlink="http://www.w3.org/1999/xlink" x="0px" y="0px"
	 viewBox="0 0 37.5 33" style="enable-background:new 0 0 37.5 33;" xml:space="preserve">
<g>
	<path d="M24.7,14.9c0-1,0.9-1.9,1.9-1.9c1,0,1.9,0.9,1.9,1.9s-0.8,1.9-1.9,1.9C25.5,16.8,24.7,15.9,24.7,14.9"/>
	<path d="M16.9,14.9c0-1,0.9-1.9,1.9-1.9c1,0,1.9,0.9,1.9,1.9s-0.8,1.9-1.9,1.9C17.7,16.8,16.9,15.9,16.9,14.9"/>
	<path d="M9.1,14.9c0-1,0.9-1.9,1.9-1.9c1,0,1.9,0.9,1.9,1.9s-0.8,1.9-1.9,1.9C10,16.8,9.1,15.9,9.1,14.9"/>
	<path d="M34.6,31.8c-0.3,0-0.6-0.1-0.8-0.3l-4.9-4.7H8.1c-3.5,0-6.4-2.9-6.4-6.4V8c0-3.5,2.9-6.4,6.4-6.4h21.2
		c3.5,0,6.4,2.9,6.4,6.4l0,22.7c0,0.5-0.3,0.9-0.7,1.1C34.9,31.8,34.7,31.8,34.6,31.8L34.6,31.8z M8.1,4C5.9,4,4.1,5.8,4.1,8v12.5
		c0,2.2,1.8,4.1,4.1,4.1l21.2,0c0.3,0,0.6,0.1,0.8,0.3l3.3,3.1V8c0-2.2-1.8-4.1-4.1-4.1L8.1,4z"/>
</g>
</svg>
