<?xml version="1.0" encoding="UTF-8"?>
<svg xmlns="http://www.w3.org/2000/svg" version="1.1" xmlns:xlink="http://www.w3.org/1999/xlink" viewBox="0 0 80 93.9">
  <defs>
    <style>
      .cls-1 {
        fill-rule: evenodd;
      }

      .cls-1, .cls-2, .cls-3, .cls-4, .cls-5, .cls-6, .cls-7, .cls-8 {
        stroke-width: 0px;
      }

      .cls-1, .cls-8 {
        fill: #fff;
      }

      .cls-2 {
        fill: url(#Unbenannter_Verlauf_6);
      }

      .cls-3 {
        fill: url(#Unbenannter_Verlauf_31);
      }

      .cls-4 {
        fill: url(#Unbenannter_Verlauf);
      }

      .cls-5 {
        fill: url(#Unbenannter_Verlauf_3);
      }

      .cls-6 {
        fill: url(#Unbenannter_Verlauf_4);
      }

      .cls-7 {
        fill: url(#Unbenannter_Verlauf_6-2);
      }

      .cls-9 {
        display: none;
      }
    </style>
    <linearGradient id="Unbenannter_Verlauf" data-name="Unbenannter Verlauf" x1="-.6" y1="83" x2="81.4" y2="83" gradientTransform="translate(0 96) scale(1 -1)" gradientUnits="userSpaceOnUse">
      <stop offset="0" stop-color="#c0069b"/>
      <stop offset=".7" stop-color="#ec4016"/>
      <stop offset="1" stop-color="#faae1d"/>
    </linearGradient>
    <radialGradient id="Unbenannter_Verlauf_6" data-name="Unbenannter Verlauf 6" cx="25.9" cy="29.3" fx="25.9" fy="29.3" r="36.2" gradientUnits="userSpaceOnUse">
      <stop offset="0" stop-color="#466488"/>
      <stop offset="1" stop-color="#003c65"/>
    </radialGradient>
    <linearGradient id="Unbenannter_Verlauf_3" data-name="Unbenannter Verlauf 3" x1="-.6" y1="14.4" x2="81.4" y2="14.4" gradientTransform="translate(0 96) scale(1 -1)" gradientUnits="userSpaceOnUse">
      <stop offset="0" stop-color="#c0069b"/>
      <stop offset=".7" stop-color="#ec4016"/>
      <stop offset="1" stop-color="#faae1d"/>
    </linearGradient>
    <linearGradient id="Unbenannter_Verlauf_4" data-name="Unbenannter Verlauf 4" x1="-.6" y1="35.2" x2="81.4" y2="35.2" gradientTransform="translate(0 96) scale(1 -1)" gradientUnits="userSpaceOnUse">
      <stop offset="0" stop-color="#c0069b"/>
      <stop offset=".7" stop-color="#ec4016"/>
      <stop offset="1" stop-color="#faae1d"/>
    </linearGradient>
    <radialGradient id="Unbenannter_Verlauf_31" data-name="Unbenannter Verlauf 31" cx="16.4" cy="7.5" fx="16.4" fy="7.5" r="95.1" gradientUnits="userSpaceOnUse">
      <stop offset="0" stop-color="#395d82"/>
      <stop offset=".6" stop-color="#194a71"/>
      <stop offset="1" stop-color="#003c65"/>
    </radialGradient>
    <radialGradient id="Unbenannter_Verlauf_6-2" data-name="Unbenannter Verlauf 6" cx="4592.7" cy="6944.5" fx="4592.7" fy="6944.5" r="205.5" gradientTransform="translate(-755 -1105.2) scale(.2)" xlink:href="#Unbenannter_Verlauf_6"/>
  </defs>
  <g id="cate_logo_farbverlauf_cate" data-name="cate logo farbverlauf cate" class="cls-9">
    <g id="Ebene_2" data-name="Ebene 2">
      <g id="Ebene_1-2" data-name="Ebene 1-2">
        <path class="cls-4" d="M80,21.4L43.9.6c-1.3-.7-2.8-.7-4.1,0L3.6,21.4l8.1,4.6,30.2-17.4,30.2,17.4,8-4.6Z"/>
        <polygon class="cls-2" points="64.3 34.7 41.8 21.8 19.4 34.7 19.4 60.6 41.8 73.6 64.3 60.6 64.3 34.7"/>
        <polygon class="cls-5" points="45.5 84.6 45.5 93.9 80 73.9 72 69.3 45.5 84.6"/>
        <path class="cls-6" d="M0,69.5c0,1.5.8,2.8,2,3.5l36.2,20.9v-9.3l-30.1-17.4v-34.8L0,27.7v41.8Z"/>
        <g id="logo_text" data-name="logo text">
          <polygon class="cls-8" points="25.8 51.9 27.8 51.9 27.8 42.7 25.8 42.7 25.8 51.9"/>
          <polygon class="cls-8" points="29.6 51.9 36 51.9 36 50.2 31.6 50.2 31.6 42.7 29.6 42.7 29.6 51.9"/>
          <polygon class="cls-8" points="37.7 51.9 39.7 51.9 39.7 42.7 37.7 42.7 37.7 51.9"/>
          <path class="cls-1" d="M40.8,51.9h2l.7-2h3.4l.7,2h2.1l-3.4-9.1h-2.1l-3.5,9.1h0ZM45.3,45h0l1.1,3.4h-2.4l1.2-3.4h0Z"/>
          <path class="cls-8" d="M50.7,48.8c0,2.3,1.9,3.3,3.9,3.3s3.8-1.3,3.8-2.9-2-2.5-2.7-2.7c-2.3-.6-2.7-.7-2.7-1.4s.7-1,1.4-1c1,0,1.7.3,1.8,1.4h1.9c0-2.1-1.8-3-3.7-3s-3.4.9-3.4,2.8,1.4,2.2,2.7,2.6c1.4.4,2.7.5,2.7,1.5s-1.1,1.1-1.8,1.1c-1.1,0-2-.5-2-1.7,0,0-2,0-2,0Z"/>
        </g>
      </g>
    </g>
  </g>
  <g id="cate_logo_weiss" data-name="cate logo weiss">
    <g id="Ebene_2-2" data-name="Ebene 2">
      <g id="Ebene_1-2-2" data-name="Ebene 1-2">
        <path class="cls-8" d="M80,21.4L43.9.6c-1.3-.7-2.8-.7-4.1,0L3.6,21.4l8.1,4.6,30.2-17.4,30.2,17.4,8-4.6Z"/>
        <polygon class="cls-2" points="64.3 34.7 41.8 21.8 19.4 34.7 19.4 60.6 41.8 73.6 64.3 60.6 64.3 34.7"/>
        <polygon class="cls-8" points="45.5 84.6 45.5 93.9 80 73.9 72 69.3 45.5 84.6"/>
        <path class="cls-8" d="M0,69.5c0,1.5.8,2.8,2,3.5l36.2,20.9v-9.3l-30.1-17.4v-34.8L0,27.7v41.8Z"/>
        <g id="logo_text-2" data-name="logo text">
          <polygon class="cls-8" points="25.8 51.9 27.8 51.9 27.8 42.7 25.8 42.7 25.8 51.9"/>
          <polygon class="cls-8" points="29.6 51.9 36 51.9 36 50.2 31.6 50.2 31.6 42.7 29.6 42.7 29.6 51.9"/>
          <polygon class="cls-8" points="37.7 51.9 39.7 51.9 39.7 42.7 37.7 42.7 37.7 51.9"/>
          <path class="cls-1" d="M40.8,51.9h2l.7-2h3.4l.7,2h2.1l-3.4-9.1h-2.1l-3.5,9.1h0ZM45.3,45h0l1.1,3.4h-2.4l1.2-3.4h0Z"/>
          <path class="cls-8" d="M50.7,48.8c0,2.3,1.9,3.3,3.9,3.3s3.8-1.3,3.8-2.9-2-2.5-2.7-2.7c-2.3-.6-2.7-.7-2.7-1.4s.7-1,1.4-1c1,0,1.7.3,1.8,1.4h1.9c0-2.1-1.8-3-3.7-3s-3.4.9-3.4,2.8,1.4,2.2,2.7,2.6c1.4.4,2.7.5,2.7,1.5s-1.1,1.1-1.8,1.1c-1.1,0-2-.5-2-1.7,0,0-2,0-2,0Z"/>
        </g>
      </g>
    </g>
  </g>
  <g id="cate_logo_blau" data-name="cate logo blau">
    <g id="Ebene_2-3" data-name="Ebene 2">
      <g id="Ebene_1-2-3" data-name="Ebene 1-2">
        <polygon class="cls-2" points="64.3 34.7 41.8 21.8 19.4 34.7 19.4 60.6 41.8 73.6 64.3 60.6 64.3 34.7"/>
        <path class="cls-3" d="M80,21.4L43.9.6c-1.3-.7-2.8-.7-4.1,0L3.6,21.4l8.1,4.6,30.2-17.4,30.2,17.4,8-4.6ZM45.5,84.6v9.3l34.6-20-8.1-4.7-26.5,15.3ZM0,69.5c0,1.5.8,2.8,2,3.5l36.2,20.9v-9.3l-30.1-17.4v-34.8L0,27.7v41.8Z"/>
        <g id="logo_text-3" data-name="logo text">
          <polygon class="cls-8" points="25.8 51.9 27.8 51.9 27.8 42.7 25.8 42.7 25.8 51.9"/>
          <polygon class="cls-8" points="29.6 51.9 36 51.9 36 50.2 31.6 50.2 31.6 42.7 29.6 42.7 29.6 51.9"/>
          <polygon class="cls-8" points="37.7 51.9 39.7 51.9 39.7 42.7 37.7 42.7 37.7 51.9"/>
          <path class="cls-1" d="M40.8,51.9h2l.7-2h3.4l.7,2h2.1l-3.4-9.1h-2.1l-3.5,9.1h0ZM45.3,45h0l1.1,3.4h-2.4l1.2-3.4h0Z"/>
          <path class="cls-8" d="M50.7,48.8c0,2.3,1.9,3.3,3.9,3.3s3.8-1.3,3.8-2.9-2-2.5-2.7-2.7c-2.3-.6-2.7-.7-2.7-1.4s.7-1,1.4-1c1,0,1.7.3,1.8,1.4h1.9c0-2.1-1.8-3-3.7-3s-3.4.9-3.4,2.8,1.4,2.2,2.7,2.6c1.4.4,2.7.5,2.7,1.5s-1.1,1.1-1.8,1.1c-1.1,0-2-.5-2-1.7,0,0-2,0-2,0Z"/>
        </g>
      </g>
    </g>
  </g>
  <g id="ilias_logo" data-name="ilias logo" class="cls-9">
    <polygon class="cls-7" points="-26.5 -.5 17.5 -.5 17.5 43.5 -26.5 43.5 -26.5 -.5"/>
    <g>
      <polygon class="cls-8" points="-20.4 36.6 -18.4 36.6 -18.4 27.4 -20.4 27.4 -20.4 36.6"/>
      <polygon class="cls-8" points="-16.6 36.6 -10.1 36.6 -10.1 34.9 -14.6 34.9 -14.6 27.4 -16.6 27.4 -16.6 36.6"/>
      <polygon class="cls-8" points="-8.5 36.6 -6.5 36.6 -6.5 27.4 -8.5 27.4 -8.5 36.6"/>
      <path class="cls-1" d="M-5.4,36.6h2l.7-2H.8l.7,2h2.1L.2,27.4H-1.9l-3.5,9.1h0ZM-.9,29.7h0l1.1,3.4h-2.4l1.2-3.4h0Z"/>
      <path class="cls-8" d="M4.6,33.5c0,2.3,1.9,3.3,3.9,3.3s3.8-1.3,3.8-2.9-2-2.5-2.7-2.7c-2.3-.6-2.7-.7-2.7-1.4s.7-1,1.4-1c1,0,1.7.3,1.8,1.4h2c0-2.1-1.8-3-3.7-3s-3.4.9-3.4,2.8,1.4,2.2,2.7,2.6c1.3.4,2.7.5,2.7,1.5s-1.1,1.1-1.8,1.1c-1.1,0-2-.5-2-1.7h-2Z"/>
    </g>
  </g>
</svg>