<svg xmlns="http://www.w3.org/2000/svg" xmlns:xlink="http://www.w3.org/1999/xlink" viewBox="0 0 300 300"><defs><style>.cls-1{fill:url(#linear-gradient);}.cls-2{fill:url(#linear-gradient-2);}.cls-3{fill:url(#linear-gradient-3);}.cls-4{fill:url(#linear-gradient-4);}.cls-13,.cls-5{fill:none;}.cls-6{fill:url(#linear-gradient-5);}.cls-16,.cls-17,.cls-7,.cls-8{fill:#fff;}.cls-7{stroke:#dab22b;}.cls-7,.cls-8{stroke-width:0.72px;}.cls-8{stroke:#dab22a;}.cls-9{fill:url(#linear-gradient-6);}.cls-10{fill:url(#linear-gradient-7);}.cls-11{fill:url(#linear-gradient-8);}.cls-12{fill:url(#linear-gradient-9);}.cls-13{stroke:#ffefaf;stroke-linecap:round;stroke-width:2.88px;stroke-dasharray:0.25 5.04 0.25 5.04 0.25 5.04;}.cls-14{fill:#003c66;}.cls-15{fill:url(#Unbenannter_Verlauf_4);}.cls-17{fill-rule:evenodd;}</style><linearGradient id="linear-gradient" x1="61.19" y1="149.26" x2="238.81" y2="149.26" gradientTransform="translate(260.81 -31.02) rotate(76.72)" gradientUnits="userSpaceOnUse"><stop offset="0" stop-color="#efd01d"/><stop offset="0.35" stop-color="#e9ba1c"/><stop offset="0.71" stop-color="#e4ab1c"/><stop offset="1" stop-color="#e3a61c"/></linearGradient><linearGradient id="linear-gradient-2" x1="197.76" y1="169.19" x2="75.88" y2="118.32" gradientUnits="userSpaceOnUse"><stop offset="0" stop-color="#cfa32d"/><stop offset="1" stop-color="#dfbb29"/></linearGradient><linearGradient id="linear-gradient-3" x1="149.41" y1="151.13" x2="163.16" y2="240.29" gradientUnits="userSpaceOnUse"><stop offset="0" stop-color="#f3d96c"/><stop offset="0.08" stop-color="#f3db79"/><stop offset="0.34" stop-color="#f5e29b"/><stop offset="0.59" stop-color="#f5e7b3"/><stop offset="0.81" stop-color="#f6eac2"/><stop offset="1" stop-color="#f6ebc7"/></linearGradient><linearGradient id="linear-gradient-4" x1="207.3" y1="277.37" x2="32.78" y2="-131.15" gradientUnits="userSpaceOnUse"><stop offset="0" stop-color="#ddb929"/><stop offset="0.49" stop-color="#fff"/><stop offset="1" stop-color="#deb929"/></linearGradient><linearGradient id="linear-gradient-5" x1="72" y1="149.26" x2="228.04" y2="149.26" xlink:href="#linear-gradient-4"/><linearGradient id="linear-gradient-6" x1="206.63" y1="708.25" x2="206.63" y2="631.36" gradientTransform="matrix(-1, 0, 0, 1, 326.18, -517.89)" gradientUnits="userSpaceOnUse"><stop offset="0" stop-color="#dca218"/><stop offset="0" stop-color="#dca218"/><stop offset="0.55" stop-color="#e6b11b"/><stop offset="1" stop-color="#e9b61c"/></linearGradient><linearGradient id="linear-gradient-7" x1="145.4" y1="708.25" x2="145.4" y2="631.36" xlink:href="#linear-gradient-6"/><linearGradient id="linear-gradient-8" x1="150.15" y1="155.77" x2="150.18" y2="155.77" xlink:href="#linear-gradient-4"/><linearGradient id="linear-gradient-9" x1="150.15" y1="155.77" x2="150.18" y2="155.77" xlink:href="#linear-gradient-4"/><radialGradient id="Unbenannter_Verlauf_4" cx="132.32" cy="86.68" r="26.28" gradientUnits="userSpaceOnUse"><stop offset="0" stop-color="#486689"/><stop offset="0.99" stop-color="#0a3f65"/></radialGradient></defs><g id="Ebene_2" data-name="Ebene 2"><circle class="cls-1" cx="150" cy="149.26" r="88.81" transform="translate(-29.73 260.96) rotate(-76.72)"/><path class="cls-2" d="M71.64,149.26A78.38,78.38,0,1,0,150,70.89,78.47,78.47,0,0,0,71.64,149.26Z"/><path class="cls-3" d="M134.32,157.28C109,168.52,88.28,164,72.85,155a77.67,77.67,0,0,0,154.63,1C199.12,143.25,172,140.57,134.32,157.28Z"/><path class="cls-4" d="M150,70.53a77.66,77.66,0,0,0-77.66,77.66c0,2.31.11,4.59.3,6.85,15.43,9,36.1,13.54,61.47,2.3,37.72-16.71,64.8-14,93.15-1.3A77.64,77.64,0,0,0,150,70.53Z"/><path class="cls-5" d="M203.66,95.62a75.87,75.87,0,1,0,22.22,53.64A75.61,75.61,0,0,0,203.66,95.62Z"/><path class="cls-6" d="M150,71.25a78,78,0,1,0,78,78A78,78,0,0,0,150,71.25Zm53.64,131.66a75.87,75.87,0,1,1,22.22-53.65A75.61,75.61,0,0,1,203.66,202.91Z"/><polygon class="cls-7" points="76.61 146.73 76.56 148.41 78.41 149.25 78.45 147.61 76.61 146.73"/><path class="cls-7" d="M76.73,144.2c0,.56-.1,1.11-.1,1.68l1.84.9c0-.55,0-1.09.07-1.64Z"/><polygon class="cls-7" points="76.93 141.67 76.8 143.34 78.6 144.31 78.72 142.68 76.93 141.67"/><polygon class="cls-7" points="77.25 139.15 77.04 140.82 78.79 141.85 79 140.22 77.25 139.15"/><path class="cls-7" d="M77.64,136.65l-.28,1.65,1.74,1.09c.07-.54.13-1.08.24-1.62Z"/><polygon class="cls-7" points="78.11 134.15 77.79 135.81 79.49 136.95 79.78 135.34 78.11 134.15"/><polygon class="cls-7" points="78.67 131.68 78.3 133.32 79.94 134.52 80.31 132.92 78.67 131.68"/><polygon class="cls-7" points="79.33 129.23 78.87 130.85 80.49 132.11 80.9 130.53 79.33 129.23"/><path class="cls-7" d="M80.05,126.8c-.19.53-.33,1.07-.49,1.61l1.57,1.31.45-1.57Z"/><polygon class="cls-7" points="80.87 124.39 80.33 125.99 81.84 127.36 82.36 125.8 80.87 124.39"/><path class="cls-7" d="M81.78,122l-.62,1.56L82.63,125c.16-.53.39-1,.58-1.54Z"/><path class="cls-7" d="M82.76,119.69c-.23.51-.47,1-.67,1.54l1.43,1.48.61-1.52Z"/><polygon class="cls-7" points="83.8 117.38 83.11 118.91 84.47 120.43 85.15 118.94 83.8 117.38"/><polygon class="cls-7" points="84.96 115.12 84.19 116.62 85.49 118.18 86.24 116.72 84.96 115.12"/><polygon class="cls-7" points="86.18 112.9 85.35 114.36 86.62 115.98 87.4 114.53 86.18 112.9"/><polygon class="cls-7" points="87.47 110.71 86.61 112.16 87.81 113.81 88.63 112.39 87.47 110.71"/><polygon class="cls-7" points="88.84 108.58 87.93 109.99 89.07 111.68 89.95 110.3 88.84 108.58"/><path class="cls-7" d="M90.29,106.5l-1,1.37,1.09,1.73c.28-.47.62-.9.93-1.35Z"/><polygon class="cls-7" points="91.8 104.46 90.78 105.8 91.81 107.57 92.77 106.24 91.8 104.46"/><polygon class="cls-7" points="93.37 102.47 92.33 103.79 93.29 105.59 94.3 104.3 93.37 102.47"/><polygon class="cls-7" points="95.03 100.55 93.93 101.82 94.82 103.65 95.89 102.41 95.03 100.55"/><polygon class="cls-7" points="96.75 98.69 95.59 99.9 96.44 101.78 97.54 100.56 96.75 98.69"/><polygon class="cls-7" points="98.52 96.87 97.34 98.07 98.11 99.96 99.24 98.78 98.52 96.87"/><polygon class="cls-7" points="100.36 95.12 99.14 96.28 99.84 98.19 101.03 97.06 100.36 95.12"/><polygon class="cls-7" points="102.26 93.45 100.99 94.55 101.63 96.49 102.86 95.4 102.26 93.45"/><polygon class="cls-7" points="104.22 91.83 102.91 92.89 103.49 94.86 104.74 93.8 104.22 91.83"/><polygon class="cls-7" points="106.22 90.27 104.89 91.3 105.39 93.28 106.68 92.27 106.22 90.27"/><polygon class="cls-7" points="108.28 88.8 106.91 89.78 107.34 91.76 108.68 90.81 108.28 88.8"/><polygon class="cls-7" points="110.4 87.4 108.98 88.31 109.36 90.33 110.72 89.41 110.4 87.4"/><polygon class="cls-7" points="112.55 86.06 111.12 86.94 111.42 88.96 112.8 88.08 112.55 86.06"/><polygon class="cls-7" points="114.75 84.8 113.29 85.63 113.52 87.66 114.94 86.84 114.75 84.8"/><polygon class="cls-7" points="117 83.63 115.5 84.39 115.66 86.43 117.11 85.67 117 83.63"/><path class="cls-7" d="M119.29,82.52c-.51.24-1,.45-1.53.72l.1,2.05c.49-.24,1-.52,1.46-.73Z"/><polygon class="cls-7" points="121.6 81.49 120.06 82.17 120.08 84.22 121.58 83.54 121.6 81.49"/><polygon class="cls-7" points="123.96 80.56 122.4 81.17 122.34 83.21 123.86 82.61 123.96 80.56"/><polygon class="cls-7" points="126.35 79.7 124.76 80.25 124.64 82.3 126.18 81.74 126.35 79.7"/><path class="cls-7" d="M128.76,78.92c-.54.14-1.07.33-1.6.51l-.2,2,1.56-.53Z"/><polygon class="cls-7" points="131.2 78.23 129.59 78.69 129.32 80.71 130.89 80.26 131.2 78.23"/><path class="cls-7" d="M133.67,77.64,132,78l-.34,2c.53-.16,1.07-.26,1.6-.39Z"/><polygon class="cls-7" points="136.15 77.11 134.5 77.44 134.1 79.45 135.69 79.09 136.15 77.11"/><polygon class="cls-7" points="138.65 76.67 136.99 76.96 136.51 78.94 138.13 78.66 138.65 76.67"/><polygon class="cls-7" points="141.16 76.34 139.5 76.55 138.95 78.51 140.57 78.3 141.16 76.34"/><path class="cls-7" d="M143.68,76.08c-.55,0-1.11.07-1.67.15l-.61,2c.54-.06,1.08-.15,1.63-.19Z"/><polygon class="cls-7" points="146.21 75.88 144.54 76.01 143.86 77.94 145.49 77.81 146.21 75.88"/><polygon class="cls-7" points="148.75 75.82 147.07 75.86 146.32 77.75 147.96 77.71 148.75 75.82"/><path class="cls-7" d="M151.29,75.82c-.56,0-1.13,0-1.69,0l-.81,1.89c.55,0,1.1,0,1.64,0Z"/><polygon class="cls-7" points="153.82 75.88 152.14 75.84 151.27 77.69 152.91 77.73 153.82 75.88"/><polygon class="cls-7" points="156.35 76.08 154.67 75.95 153.74 77.75 155.37 77.88 156.35 76.08"/><path class="cls-7" d="M158.87,76.34c-.56-.07-1.11-.16-1.67-.2l-1,1.8c.55,0,1.09.07,1.64.15Z"/><polygon class="cls-7" points="161.39 76.67 159.72 76.44 158.66 78.19 160.29 78.4 161.39 76.67"/><polygon class="cls-7" points="163.88 77.11 162.23 76.82 161.11 78.51 162.73 78.8 163.88 77.11"/><polygon class="cls-7" points="166.37 77.64 164.73 77.26 163.55 78.95 165.15 79.27 166.37 77.64"/><path class="cls-7" d="M168.83,78.23c-.53-.17-1.09-.27-1.63-.4L166,79.46l1.6.37Z"/><polygon class="cls-7" points="171.27 78.92 169.65 78.46 168.37 80.04 169.94 80.49 171.27 78.92"/><path class="cls-7" d="M173.68,79.71l-1.59-.54-1.34,1.54c.52.14,1,.33,1.56.5Z"/><polygon class="cls-7" points="176.07 80.56 174.5 79.98 173.1 81.48 174.65 82 176.07 80.56"/><polygon class="cls-7" points="178.43 81.49 176.87 80.87 175.42 82.31 176.95 82.91 178.43 81.49"/><polygon class="cls-7" points="180.75 82.53 179.22 81.83 177.72 83.22 179.22 83.88 180.75 82.53"/><path class="cls-7" d="M183,83.63c-.5-.25-1-.53-1.5-.75L180,84.23c.49.23,1,.43,1.48.69Z"/><polygon class="cls-7" points="185.28 84.8 183.79 84.02 182.2 85.3 183.66 86.05 185.28 84.8"/><polygon class="cls-7" points="187.49 86.06 186.03 85.22 184.4 86.44 185.82 87.26 187.49 86.06"/><polygon class="cls-7" points="189.64 87.4 188.22 86.49 186.54 87.67 187.94 88.53 189.64 87.4"/><polygon class="cls-7" points="191.75 88.8 190.36 87.86 188.64 88.98 190.02 89.86 191.75 88.8"/><polygon class="cls-7" points="193.82 90.27 192.45 89.3 190.7 90.34 192.04 91.3 193.82 90.27"/><polygon class="cls-7" points="195.82 91.83 194.5 90.79 192.72 91.78 194.01 92.78 195.82 91.83"/><polygon class="cls-7" points="197.77 93.45 196.49 92.36 194.66 93.3 195.94 94.33 197.77 93.45"/><polygon class="cls-7" points="199.68 95.12 198.42 94.01 196.57 94.88 197.81 95.95 199.68 95.12"/><polygon class="cls-7" points="201.51 96.87 200.3 95.71 198.43 96.51 199.61 97.64 201.51 96.87"/><polygon class="cls-7" points="203.29 98.69 202.13 97.47 200.21 98.21 201.37 99.38 203.29 98.69"/><polygon class="cls-7" points="205 100.55 203.88 99.3 201.94 99.98 203.07 101.17 205 100.55"/><polygon class="cls-7" points="206.66 102.47 205.56 101.2 203.62 101.8 204.69 103.04 206.66 102.47"/><polygon class="cls-7" points="208.24 104.46 207.2 103.14 205.23 103.67 206.25 104.96 208.24 104.46"/><polygon class="cls-8" points="209.75 106.5 208.76 105.13 206.76 105.61 207.75 106.92 209.75 106.5"/><path class="cls-7" d="M211.2,108.58c-.29-.48-.64-.93-1-1.39l-2,.41.95,1.33Z"/><polygon class="cls-7" points="212.57 110.71 211.66 109.3 209.65 109.62 210.54 111 212.57 110.71"/><path class="cls-7" d="M213.85,112.9l-.84-1.46-2,.26c.31.46.57.94.84,1.41Z"/><polygon class="cls-7" points="215.08 115.12 214.28 113.64 212.24 113.83 213.05 115.26 215.08 115.12"/><polygon class="cls-7" points="216.23 117.38 215.47 115.88 213.43 116 214.18 117.46 216.23 117.38"/><polygon class="cls-7" points="217.28 119.69 216.59 118.16 214.56 118.2 215.23 119.69 217.28 119.69"/><polygon class="cls-7" points="218.26 122.03 217.63 120.47 215.57 120.45 216.22 121.96 218.26 122.03"/><path class="cls-7" d="M219.17,124.39c-.17-.53-.4-1-.6-1.57l-2-.09.6,1.53Z"/><polygon class="cls-7" points="219.98 126.8 219.44 125.2 217.42 125.04 217.94 126.59 219.98 126.8"/><path class="cls-7" d="M220.71,129.23l-.46-1.62-2-.23c.18.52.33,1,.47,1.57Z"/><polygon class="cls-7" points="221.36 131.68 220.94 130.05 218.91 129.75 219.36 131.33 221.36 131.68"/><polygon class="cls-7" points="221.93 134.15 221.55 132.51 219.55 132.14 219.92 133.74 221.93 134.15"/><polygon class="cls-7" points="222.39 136.65 222.1 134.99 220.1 134.55 220.41 136.16 222.39 136.65"/><path class="cls-7" d="M222.79,139.15c-.08-.55-.14-1.11-.25-1.66l-2-.51.28,1.61Z"/><polygon class="cls-7" points="223.1 141.67 222.89 140 220.94 139.42 221.14 141.04 223.1 141.67"/><polygon class="cls-7" points="223.3 144.2 223.17 142.52 221.25 141.87 221.38 143.51 223.3 144.2"/><path class="cls-7" d="M223.43,146.73c0-.56,0-1.12-.06-1.68l-1.93-.71c0,.54.1,1.09.1,1.63Z"/><polygon class="cls-7" points="223.49 149.26 223.45 147.58 221.56 146.81 221.6 148.44 223.49 149.26"/><polygon class="cls-7" points="223.43 151.8 223.47 150.12 221.63 149.28 221.58 150.92 223.43 151.8"/><path class="cls-7" d="M223.3,154.33c0-.56.11-1.12.11-1.68l-1.85-.9c0,.55,0,1.09-.06,1.64Z"/><polygon class="cls-7" points="223.1 156.86 223.24 155.18 221.44 154.22 221.31 155.85 223.1 156.86"/><polygon class="cls-7" points="222.78 159.38 223 157.71 221.24 156.68 221.04 158.31 222.78 159.38"/><path class="cls-7" d="M222.39,161.88l.29-1.65-1.75-1.09c-.07.54-.13,1.08-.23,1.62Z"/><polygon class="cls-7" points="221.93 164.38 222.24 162.72 220.55 161.58 220.26 163.19 221.93 164.38"/><polygon class="cls-7" points="221.36 166.85 221.74 165.21 220.1 164.01 219.73 165.6 221.36 166.85"/><polygon class="cls-7" points="220.71 169.3 221.17 167.68 219.54 166.42 219.13 168 220.71 169.3"/><path class="cls-7" d="M220,171.73c.19-.53.34-1.07.49-1.61l-1.57-1.32-.44,1.58Z"/><polygon class="cls-7" points="219.17 174.13 219.71 172.54 218.2 171.17 217.67 172.72 219.17 174.13"/><path class="cls-7" d="M218.26,176.5l.62-1.56-1.47-1.43c-.17.53-.39,1-.59,1.54Z"/><path class="cls-7" d="M217.28,178.84c.23-.51.47-1,.66-1.54l-1.42-1.48-.61,1.52Z"/><polygon class="cls-7" points="216.23 181.15 216.93 179.62 215.56 178.1 214.89 179.59 216.23 181.15"/><polygon class="cls-7" points="215.08 183.41 215.84 181.91 214.54 180.35 213.79 181.81 215.08 183.41"/><polygon class="cls-7" points="213.85 185.63 214.69 184.17 213.42 182.55 212.64 183.99 213.85 185.63"/><polygon class="cls-7" points="212.57 187.82 213.43 186.37 212.22 184.72 211.41 186.14 212.57 187.82"/><polygon class="cls-7" points="211.2 189.95 212.11 188.54 210.97 186.85 210.09 188.23 211.2 189.95"/><path class="cls-7" d="M209.75,192l1-1.37-1.08-1.73c-.29.46-.63.9-.94,1.35Z"/><polygon class="cls-7" points="208.24 194.07 209.25 192.73 208.22 190.96 207.26 192.28 208.24 194.07"/><polygon class="cls-7" points="206.66 196.06 207.71 194.74 206.75 192.94 205.73 194.23 206.66 196.06"/><polygon class="cls-7" points="205 197.98 206.11 196.71 205.22 194.88 204.14 196.12 205 197.98"/><polygon class="cls-7" points="203.29 199.84 204.44 198.62 203.6 196.75 202.5 197.96 203.29 199.84"/><polygon class="cls-7" points="201.51 201.66 202.7 200.46 201.92 198.57 200.79 199.75 201.51 201.66"/><polygon class="cls-7" points="199.68 203.41 200.9 202.25 200.2 200.34 199.01 201.47 199.68 203.41"/><polygon class="cls-7" points="197.77 205.08 199.04 203.98 198.41 202.04 197.18 203.13 197.77 205.08"/><polygon class="cls-7" points="195.82 206.7 197.13 205.64 196.55 203.67 195.3 204.73 195.82 206.7"/><polygon class="cls-7" points="193.82 208.26 195.15 207.23 194.64 205.25 193.35 206.26 193.82 208.26"/><polygon class="cls-7" points="191.75 209.73 193.12 208.75 192.69 206.77 191.36 207.72 191.75 209.73"/><polygon class="cls-7" points="189.64 211.13 191.05 210.22 190.68 208.2 189.32 209.12 189.64 211.13"/><polygon class="cls-7" points="187.49 212.47 188.92 211.59 188.62 209.56 187.24 210.45 187.49 212.47"/><polygon class="cls-7" points="185.28 213.73 186.74 212.9 186.52 210.87 185.1 211.69 185.28 213.73"/><polygon class="cls-7" points="183.03 214.9 184.53 214.13 184.38 212.1 182.92 212.86 183.03 214.9"/><path class="cls-7" d="M180.75,216c.51-.23,1-.44,1.52-.71l-.09-2c-.49.24-1,.51-1.47.73Z"/><polygon class="cls-7" points="178.43 217.04 179.97 216.36 179.95 214.31 178.46 214.99 178.43 217.04"/><polygon class="cls-7" points="176.07 217.97 177.64 217.35 177.7 215.32 176.17 215.92 176.07 217.97"/><polygon class="cls-7" points="173.69 218.82 175.28 218.28 175.4 216.23 173.86 216.79 173.69 218.82"/><path class="cls-7" d="M171.27,219.61c.55-.15,1.07-.33,1.61-.51l.19-2-1.55.52Z"/><polygon class="cls-7" points="168.83 220.3 170.45 219.84 170.72 217.82 169.14 218.27 168.83 220.3"/><path class="cls-7" d="M166.37,220.89l1.64-.38.33-2c-.52.16-1.06.26-1.59.39Z"/><polygon class="cls-7" points="163.88 221.42 165.53 221.09 165.94 219.07 164.34 219.44 163.88 221.42"/><polygon class="cls-7" points="161.39 221.86 163.04 221.57 163.52 219.58 161.91 219.87 161.39 221.86"/><polygon class="cls-7" points="158.87 222.19 160.54 221.98 161.09 220.02 159.46 220.23 158.87 222.19"/><path class="cls-7" d="M156.35,222.45c.56,0,1.12-.07,1.67-.15l.62-2c-.55.06-1.09.15-1.63.19Z"/><polygon class="cls-7" points="153.82 222.64 155.5 222.52 156.18 220.59 154.54 220.72 153.82 222.64"/><polygon class="cls-7" points="151.28 222.71 152.97 222.67 153.71 220.78 152.07 220.82 151.28 222.71"/><path class="cls-7" d="M148.75,222.71c.56,0,1.12,0,1.68,0l.81-1.89c-.55,0-1.09,0-1.64,0Z"/><polygon class="cls-7" points="146.21 222.64 147.9 222.69 148.77 220.84 147.13 220.8 146.21 222.64"/><polygon class="cls-7" points="143.69 222.45 145.36 222.58 146.3 220.78 144.66 220.65 143.69 222.45"/><path class="cls-7" d="M141.16,222.19c.56.07,1.11.16,1.67.2l1-1.8c-.54-.05-1.09-.07-1.63-.15Z"/><polygon class="cls-7" points="138.65 221.86 140.31 222.08 141.37 220.34 139.75 220.13 138.65 221.86"/><polygon class="cls-7" points="136.15 221.42 137.81 221.71 138.92 220.01 137.31 219.73 136.15 221.42"/><polygon class="cls-7" points="133.67 220.89 135.31 221.27 136.49 219.58 134.88 219.25 133.67 220.89"/><path class="cls-7" d="M131.2,220.3c.54.17,1.09.27,1.64.4l1.23-1.63-1.6-.37Z"/><polygon class="cls-7" points="128.76 219.61 130.38 220.07 131.67 218.49 130.09 218.04 128.76 219.61"/><path class="cls-7" d="M126.35,218.82l1.59.54,1.35-1.55c-.53-.13-1-.32-1.56-.49Z"/><polygon class="cls-7" points="123.96 217.97 125.54 218.55 126.94 217.05 125.39 216.52 123.96 217.97"/><polygon class="cls-7" points="121.6 217.04 123.17 217.66 124.61 216.22 123.09 215.62 121.6 217.04"/><polygon class="cls-7" points="119.29 216 120.82 216.7 122.31 215.31 120.82 214.64 119.29 216"/><path class="cls-7" d="M117,214.9c.51.25,1,.53,1.51.75l1.55-1.35c-.5-.23-1-.43-1.49-.69Z"/><polygon class="cls-7" points="114.75 213.73 116.24 214.51 117.83 213.23 116.37 212.48 114.75 213.73"/><polygon class="cls-7" points="112.55 212.47 114.01 213.31 115.64 212.09 114.22 211.27 112.55 212.47"/><polygon class="cls-7" points="110.4 211.13 111.81 212.04 113.5 210.85 112.1 210 110.4 211.13"/><polygon class="cls-7" points="108.28 209.73 109.68 210.67 111.4 209.55 110.02 208.66 108.28 209.73"/><polygon class="cls-7" points="106.22 208.26 107.59 209.23 109.34 208.18 108 207.23 106.22 208.26"/><polygon class="cls-7" points="104.22 206.7 105.54 207.74 107.32 206.75 106.03 205.75 104.22 206.7"/><polygon class="cls-7" points="102.26 205.08 103.55 206.17 105.37 205.23 104.1 204.2 102.26 205.08"/><polygon class="cls-7" points="100.36 203.41 101.62 204.52 103.47 203.65 102.23 202.58 100.36 203.41"/><polygon class="cls-7" points="98.52 201.66 99.74 202.82 101.61 202.02 100.42 200.89 98.52 201.66"/><polygon class="cls-7" points="96.75 199.84 97.91 201.06 99.82 200.32 98.67 199.15 96.75 199.84"/><polygon class="cls-7" points="95.03 197.98 96.16 199.22 98.09 198.55 96.97 197.36 95.03 197.98"/><polygon class="cls-7" points="93.37 196.06 94.47 197.33 96.42 196.73 95.35 195.49 93.37 196.06"/><polygon class="cls-7" points="91.8 194.07 92.84 195.39 94.8 194.86 93.79 193.57 91.8 194.07"/><polygon class="cls-7" points="90.29 192.03 91.27 193.4 93.27 192.92 92.28 191.61 90.29 192.03"/><path class="cls-7" d="M88.84,190c.29.48.63.93,1,1.39l2-.41-1-1.33Z"/><polygon class="cls-7" points="87.47 187.82 88.38 189.23 90.39 188.91 89.5 187.53 87.47 187.82"/><path class="cls-7" d="M86.18,185.63l.84,1.46,2-.27c-.3-.45-.56-.93-.84-1.4Z"/><polygon class="cls-7" points="84.96 183.41 85.76 184.89 87.8 184.69 86.99 183.27 84.96 183.41"/><polygon class="cls-7" points="83.8 181.15 84.57 182.65 86.61 182.53 85.86 181.07 83.8 181.15"/><polygon class="cls-7" points="82.76 178.84 83.45 180.37 85.48 180.33 84.81 178.83 82.76 178.84"/><polygon class="cls-7" points="81.78 176.5 82.41 178.06 84.46 178.08 83.81 176.57 81.78 176.5"/><path class="cls-7" d="M80.87,174.13c.16.54.4,1.05.59,1.58l2.05.09-.6-1.53Z"/><polygon class="cls-7" points="80.05 171.73 80.59 173.32 82.62 173.49 82.09 171.94 80.05 171.73"/><path class="cls-7" d="M79.33,169.3l.46,1.62,2,.23c-.19-.52-.33-1-.48-1.57Z"/><polygon class="cls-7" points="78.67 166.85 79.1 168.48 81.12 168.78 80.68 167.2 78.67 166.85"/><polygon class="cls-7" points="78.11 164.38 78.48 166.02 80.49 166.39 80.12 164.79 78.11 164.38"/><polygon class="cls-7" points="77.64 161.88 77.94 163.54 79.93 163.98 79.63 162.37 77.64 161.88"/><path class="cls-7" d="M77.25,159.38c.07.55.13,1.11.24,1.66l2,.51-.27-1.61Z"/><polygon class="cls-7" points="76.93 156.86 77.14 158.53 79.1 159.11 78.89 157.48 76.93 156.86"/><polygon class="cls-7" points="76.73 154.33 76.86 156.01 78.79 156.66 78.66 155.02 76.73 154.33"/><path class="cls-7" d="M76.61,151.8c0,.56,0,1.12.06,1.68l1.93.71c0-.54-.11-1.09-.11-1.63Z"/><polygon class="cls-7" points="76.54 149.26 76.58 150.95 78.47 151.72 78.43 150.08 76.54 149.26"/><path class="cls-9" d="M94.25,169a60.35,60.35,0,0,1-1.68-6.51c-4.15-.1-6.95-3.56-8.3-7.27a23,23,0,0,1-1.37-7.69c.23,0,5.82,1.87,8.89,10a63.67,63.67,0,0,1-.45-7c-4.13-1-6.24-4.95-6.92-8.92a22.07,22.07,0,0,1,.11-8.1c.2.15,5.41,3.49,6.9,12.39a70.23,70.23,0,0,1,.81-7.41c-3.9-1.79-5.2-6.52-4.78-10.76a21.4,21.4,0,0,1,2.18-7.81c.3.13,4.15,4.92,3.63,14A44.39,44.39,0,0,1,95.85,127c-3.34-3-3.38-7.76-2.17-11.65a21.59,21.59,0,0,1,3.54-6.81c.21.17,3.44,5.91.57,14.72A57.72,57.72,0,0,1,102,117c-2.69-3.75-1.9-8.35-.14-11.87a21.45,21.45,0,0,1,4.41-5.89c.13.17,2.79,6.75-2,15a74,74,0,0,1,5.49-5.69c-4.49-8.7,6.44-17.15,6.52-16.86s2.36,8.48-5.7,16.39a0,0,0,0,0,0,0,.14.14,0,0,1,0,.06c9.08-7.2,14.91.62,14.77.46s-8.41,5.89-15.33.3a70.3,70.3,0,0,0-5.8,6.24c7.3-6.5,13.33-.35,13.16-.51s-7.34,6.92-15,2.8A57.36,57.36,0,0,0,98.14,124a9.28,9.28,0,0,1,7.65-3.84,9.16,9.16,0,0,1,4.68,1.49c-.33,0-5.78,7.67-14,5.63a44.43,44.43,0,0,0-2.59,7.26,9.06,9.06,0,0,1,6.35-5.34,8.82,8.82,0,0,1,4.83.44c-.41.09-3.69,8.05-12,8.85a68.32,68.32,0,0,0-.71,7.3,10.52,10.52,0,0,1,4.73-6.64,8.58,8.58,0,0,1,4.71-1c-.33.31-1.76,9.68-9.49,12.16a66.87,66.87,0,0,0,.55,7.08,10.87,10.87,0,0,1,3.45-7.29,9.23,9.23,0,0,1,4.43-2.23c-.27.11.22,9.93-7.08,14.21a59.28,59.28,0,0,0,1.76,6.5,11,11,0,0,1,2-7.54,9.46,9.46,0,0,1,4-3.12c-.21.22,1.91,9.35-4.21,15.32a51.59,51.59,0,0,0,2.94,5.43,10.67,10.67,0,0,1,.5-7.35,10.13,10.13,0,0,1,3.24-4c-.22.34,3.63,8-.73,15.64a54.53,54.53,0,0,0,4.15,4.8,11,11,0,0,1,.88-12.32c-.23.16,5.86,7.46,2.74,15.73,1.41,1.22,2.88,2.37,4.38,3.43a11.21,11.21,0,0,1-2.07-6.63,11.5,11.5,0,0,1,1.28-5.17,21.93,21.93,0,0,1,3.39,4.57,15.07,15.07,0,0,1,2,10.17l.1.05c1.6.9,3.24,1.71,4.9,2.44a11.2,11.2,0,0,1-3.1-11.44c-.11.19,8.15,4.57,8.06,13.38,1.79.61,3.59,1.14,5.43,1.58,2.67.69,5.3,1.17,8.08,1.77,4.37,1.07,10.89,5.36,12.75,8.52l-5.8-.71c-.86-3.79-5.3-4.83-7.41-5.62-2.6-.6-5.39-1.15-8.06-1.89-1.86-.47-3.7-1-5.51-1.68-4.65,7.85-16.38,2.13-16.25,1.82a13.6,13.6,0,0,1,10.91-4c-1.62-.75-3.22-1.57-4.78-2.47l-.06,0c-2.68,3.28-6.85,3.37-10.27,2.11a20.2,20.2,0,0,1-6.21-3.78c.16-.23,4.67-3.43,11.83-1.35q-2.37-1.71-4.59-3.66c-6.92,5.7-16.19-4.75-15.9-5.08.16-.1,5.23-2.43,11.86,1.14a58.19,58.19,0,0,1-3.83-4.59c-3.69,2-7.55.34-10.36-2.51A21,21,0,0,1,87.43,175c.27-.16,5.73-.65,11.72,4.75A54.08,54.08,0,0,1,96.09,174c-4,.91-7.47-1.87-9.47-5.25a22.39,22.39,0,0,1-2.77-7.32C84.08,161.32,89.7,162,94.25,169Z"/><path class="cls-10" d="M206.08,169a60.35,60.35,0,0,0,1.68-6.51c4.15-.1,7-3.56,8.3-7.27a23,23,0,0,0,1.37-7.69c-.23,0-5.82,1.87-8.89,10a63.67,63.67,0,0,0,.45-7c4.13-1,6.24-4.95,6.92-8.92a22.07,22.07,0,0,0-.11-8.1c-.2.15-5.41,3.49-6.91,12.39a67.68,67.68,0,0,0-.8-7.41c3.91-1.79,5.2-6.52,4.78-10.76a21.4,21.4,0,0,0-2.18-7.81c-.3.13-4.15,4.92-3.63,14a45.43,45.43,0,0,0-2.58-6.88c3.34-3,3.38-7.76,2.17-11.65a21.59,21.59,0,0,0-3.54-6.81c-.21.17-3.44,5.91-.57,14.72a57.72,57.72,0,0,0-4.19-6.25c2.69-3.75,1.9-8.35.14-11.87a21.45,21.45,0,0,0-4.41-5.89c-.13.17-2.79,6.75,2,15a74,74,0,0,0-5.49-5.69c4.49-8.7-6.44-17.15-6.53-16.86s-2.35,8.48,5.71,16.39h0a.14.14,0,0,0,0,.06c-9.08-7.2-14.91.62-14.77.46s8.41,5.89,15.33.3a70.3,70.3,0,0,1,5.8,6.24c-7.3-6.5-13.33-.35-13.16-.51s7.34,6.92,15,2.8a57.36,57.36,0,0,1,4.29,6.67,9.28,9.28,0,0,0-7.65-3.84,9.16,9.16,0,0,0-4.68,1.49c.33,0,5.78,7.67,14,5.63a45.38,45.38,0,0,1,2.59,7.26,9.06,9.06,0,0,0-6.35-5.34,8.82,8.82,0,0,0-4.83.44c.41.09,3.69,8.05,12,8.85a68.32,68.32,0,0,1,.71,7.3,10.52,10.52,0,0,0-4.73-6.64,8.57,8.57,0,0,0-4.71-1c.33.31,1.76,9.68,9.49,12.16a66.87,66.87,0,0,1-.55,7.08,10.91,10.91,0,0,0-3.44-7.29,9.28,9.28,0,0,0-4.44-2.23c.27.11-.22,9.93,7.08,14.21a59.28,59.28,0,0,1-1.76,6.5,11.05,11.05,0,0,0-2-7.54,9.46,9.46,0,0,0-4-3.12c.21.22-1.91,9.35,4.21,15.32a51.59,51.59,0,0,1-2.94,5.43,10.67,10.67,0,0,0-.5-7.35,10.13,10.13,0,0,0-3.24-4c.22.34-3.63,8,.73,15.64a54.53,54.53,0,0,1-4.15,4.8,11,11,0,0,0-.88-12.32c.23.16-5.86,7.46-2.74,15.73-1.41,1.22-2.88,2.37-4.38,3.43a11.21,11.21,0,0,0,2.07-6.63,11.66,11.66,0,0,0-1.28-5.17,21.93,21.93,0,0,0-3.39,4.57,15.07,15.07,0,0,0-2,10.17l-.1.05c-1.6.9-3.24,1.71-4.9,2.44a11.2,11.2,0,0,0,3.1-11.44c.11.19-8.15,4.57-8.06,13.38q-2.69.92-5.43,1.58c-2.67.69-5.3,1.17-8.07,1.77-4.38,1.07-10.9,5.36-12.76,8.52l5.8-.71c.86-3.79,5.3-4.83,7.41-5.62,2.61-.6,5.39-1.15,8.06-1.89,1.86-.47,3.69-1,5.51-1.68,4.65,7.85,16.38,2.13,16.26,1.82a13.66,13.66,0,0,0-10.92-4c1.62-.75,3.22-1.57,4.78-2.47l.06,0c2.68,3.28,6.85,3.37,10.27,2.11a20.2,20.2,0,0,0,6.21-3.78c-.16-.23-4.67-3.43-11.83-1.35q2.37-1.71,4.59-3.66c6.92,5.7,16.19-4.75,15.9-5.08-.16-.1-5.23-2.43-11.86,1.14a58.19,58.19,0,0,0,3.83-4.59c3.69,2,7.55.34,10.36-2.51A21,21,0,0,0,212.9,175c-.27-.16-5.73-.65-11.72,4.75a54.08,54.08,0,0,0,3.06-5.79c4,.91,7.47-1.87,9.47-5.25a22.39,22.39,0,0,0,2.77-7.32C216.25,161.32,210.63,162,206.08,169Z"/><path class="cls-11" d="M150.15,155.78h0S150.16,155.76,150.15,155.78Z"/><path class="cls-12" d="M150.18,155.78h0S150.17,155.76,150.18,155.78Z"/><circle class="cls-13" cx="149.99" cy="149.25" r="83.39"/><path class="cls-14" d="M119,142.64l1.2-2a4.73,4.73,0,0,0,2.86,1c1.34,0,2.12-.68,2.12-1.54,0-1.18-1.42-1.52-3-2.3s-2.86-1.82-2.86-4,1.92-3.7,4.3-3.7a6.18,6.18,0,0,1,3.9,1.12l-1.14,2a5,5,0,0,0-2.6-.82c-1.08,0-1.78.48-1.78,1.38s1.06,1.38,2.46,2c1.76.8,3.42,1.7,3.42,4.16s-1.82,4-4.78,4A6.47,6.47,0,0,1,119,142.64Z"/><path class="cls-14" d="M129.15,138.8a4.75,4.75,0,0,1,4.82-5.06c2.76,0,4.24,1.76,4.24,4.8,0,.3,0,.6,0,.92H132a2.39,2.39,0,0,0,2.48,2.52,5,5,0,0,0,2.54-.68l.86,1.72a6.58,6.58,0,0,1-3.64.94C131,144,129.15,141.9,129.15,138.8Zm6.46-1.14c0-1.1-.46-2-1.68-2s-1.76.74-2,2Z"/><path class="cls-14" d="M140.13,134h2.66v1.32a2.88,2.88,0,0,1,2.46-1.56,2.67,2.67,0,0,1,1.32.26l-.64,2.32a1.89,1.89,0,0,0-1-.22,2.6,2.6,0,0,0-2.12,1.48v6.14h-2.66Z"/><path class="cls-14" d="M147,134h2.88l2,6.44h0L154,134h2.7l-3.6,9.74h-2.5Z"/><path class="cls-14" d="M158,131.12a1.58,1.58,0,0,1,1.62-1.56,1.59,1.59,0,0,1,1.64,1.56,1.61,1.61,0,0,1-1.64,1.6A1.6,1.6,0,0,1,158,131.12Zm.28,2.86H161v9.74h-2.68Z"/><path class="cls-14" d="M162.93,138.86a4.8,4.8,0,0,1,5.12-5.12,5.3,5.3,0,0,1,3,.78l-.86,1.82a3.59,3.59,0,0,0-2-.58c-1.56,0-2.38,1.22-2.38,3s.78,3.12,2.44,3.12a3.82,3.82,0,0,0,2.1-.6l.82,1.78A5.22,5.22,0,0,1,168,144,4.76,4.76,0,0,1,162.93,138.86Z"/><path class="cls-14" d="M171.89,138.8a4.75,4.75,0,0,1,4.82-5.06c2.76,0,4.24,1.76,4.24,4.8,0,.3,0,.6,0,.92h-6.16a2.39,2.39,0,0,0,2.48,2.52,5,5,0,0,0,2.54-.68l.86,1.72A6.58,6.58,0,0,1,177,144C173.73,144,171.89,141.9,171.89,138.8Zm6.46-1.14c0-1.1-.46-2-1.68-2s-1.76.74-2,2Z"/><path class="cls-14" d="M114.38,150.4h4.38c2.9,0,5.1,1.34,5.1,4.2s-2.1,4.38-5.42,4.38h-1.22v4.74h-2.84Zm4.1,6.44c1.78,0,2.54-.72,2.54-2.2s-.74-2.08-2.48-2.08h-1.32v4.28Z"/><path class="cls-14" d="M125.74,154h2.66v1.32a2.88,2.88,0,0,1,2.46-1.56,2.67,2.67,0,0,1,1.32.26l-.64,2.32a1.89,1.89,0,0,0-1-.22,2.6,2.6,0,0,0-2.12,1.48v6.14h-2.66Z"/><path class="cls-14" d="M132.54,158.88c0-2.5,1.46-5.14,4.86-5.14a4.76,4.76,0,0,1,4.94,5.06c0,2.46-1.5,5.16-4.92,5.16S132.54,161.38,132.54,158.88Zm7,0c0-1.82-.64-3.16-2.16-3.16s-2,1.26-2,3.08.6,3.14,2.1,3.14S139.52,160.7,139.52,158.88Z"/><path class="cls-14" d="M142.78,154h2.88l2,6.44h0L149.8,154h2.7l-3.6,9.74h-2.5Z"/><path class="cls-14" d="M153.8,151.12a1.58,1.58,0,0,1,1.62-1.56,1.59,1.59,0,0,1,1.64,1.56,1.61,1.61,0,0,1-1.64,1.6A1.6,1.6,0,0,1,153.8,151.12Zm.28,2.86h2.68v9.74h-2.68Z"/><path class="cls-14" d="M158.74,158.88c0-3.12,1.86-5.14,4.36-5.14a3.53,3.53,0,0,1,2.26.68v-5.1H168v11.62a13.23,13.23,0,0,0,.28,2.78h-2.62a5.54,5.54,0,0,1-.2-1.06,3.38,3.38,0,0,1-2.74,1.32C160.3,164,158.74,162.14,158.74,158.88Zm6.62,2v-4.4a2.39,2.39,0,0,0-1.7-.64c-1.36,0-2.1,1.14-2.1,3.06s.62,3,2,3A2.38,2.38,0,0,0,165.36,160.86Z"/><path class="cls-14" d="M169.76,158.8a4.75,4.75,0,0,1,4.82-5.06c2.76,0,4.24,1.76,4.24,4.8,0,.3,0,.6,0,.92h-6.16A2.39,2.39,0,0,0,175.1,162a5,5,0,0,0,2.54-.68l.86,1.72a6.58,6.58,0,0,1-3.64.94C171.6,164,169.76,161.9,169.76,158.8Zm6.46-1.14c0-1.1-.46-2-1.68-2s-1.76.74-2,2Z"/><path class="cls-14" d="M180.74,154h2.66v1.32a2.88,2.88,0,0,1,2.46-1.56,2.67,2.67,0,0,1,1.32.26l-.64,2.32a1.89,1.89,0,0,0-1-.22,2.6,2.6,0,0,0-2.12,1.48v6.14h-2.66Z"/><polygon class="cls-15" points="132.23 86.49 167.77 86.49 167.77 122.03 132.23 122.03 132.23 86.49 132.23 86.49"/><polygon class="cls-16" points="136.82 116.35 138.45 116.35 138.45 108.96 136.82 108.96 136.82 116.35 136.82 116.35"/><polygon class="cls-16" points="139.88 116.35 145.1 116.35 145.1 114.98 141.5 114.98 141.5 108.96 139.88 108.96 139.88 116.35 139.88 116.35"/><polygon class="cls-16" points="146.4 116.35 148.03 116.35 148.03 108.96 146.4 108.96 146.4 116.35 146.4 116.35"/><path class="cls-17" d="M148.93,116.35h1.65l.58-1.64h2.76l.56,1.64h1.69L153.4,109h-1.66l-2.81,7.39Zm3.62-5.57h0l.93,2.71h-1.92l1-2.71Z"/><path class="cls-16" d="M157,113.9c0,1.82,1.51,2.63,3.14,2.63,2,0,3.08-1,3.08-2.37,0-1.68-1.66-2-2.2-2.16-1.85-.47-2.2-.54-2.2-1.11s.6-.84,1.12-.84c.77,0,1.4.23,1.46,1.12h1.57c0-1.71-1.42-2.39-3-2.39-1.34,0-2.76.73-2.76,2.24s1.1,1.81,2.2,2.1,2.19.43,2.19,1.22-.87.92-1.43.92c-.87,0-1.64-.38-1.64-1.36Z"/><path class="cls-14" d="M128.58,180.9c1.9-1.36,5.48-3.8,5.48-5.42,0-.8-.56-1.26-1.58-1.26a3.53,3.53,0,0,0-2.34,1l-1.3-1.66a6,6,0,0,1,4-1.5c2.36,0,4,.88,4,2.86s-2.34,3.84-4.14,5.1A12,12,0,0,1,134,180h3.68v2.12h-9.14Z"/><path class="cls-14" d="M139,177.26a5,5,0,0,1,5.26-5.15,4.87,4.87,0,0,1,5.2,5.07,5,5,0,0,1-5.24,5.16A4.9,4.9,0,0,1,139,177.26Zm7.62,0c0-1.86-.84-3-2.4-3s-2.38,1.08-2.38,2.94.84,3,2.42,3S146.6,179.12,146.6,177.26Z"/><path class="cls-14" d="M150.26,180.9c1.9-1.36,5.48-3.8,5.48-5.42,0-.8-.56-1.26-1.58-1.26a3.53,3.53,0,0,0-2.34,1l-1.3-1.66a6,6,0,0,1,4-1.5c2.36,0,4,.88,4,2.86s-2.34,3.84-4.14,5.1a12,12,0,0,1,1.28-.08h3.68v2.12h-9.14Z"/><path class="cls-14" d="M166.7,182.1h-6.22v-1.68l6.52-8.06h2.34v7.7h2.08v2h-2.08v3.54H166.7Zm0-2V175.8h0l-3.32,4.26Z"/></g></svg>