<?xml version="1.0" encoding="utf-8"?>
<!-- Generator: Adobe Illustrator 26.0.1, SVG Export Plug-In . SVG Version: 6.00 Build 0)  -->
<svg version="1.1" id="Ebene_1" xmlns="http://www.w3.org/2000/svg" xmlns:xlink="http://www.w3.org/1999/xlink" x="0px" y="0px"
	 viewBox="0 0 498 490" style="enable-background:new 0 0 498 490;" xml:space="preserve">
<path d="M380.4,270.5v-7.9c7.2-6.9,12.2-18.1,12.2-33.3c0-24.3-15.4-35.7-30.1-36.1c-19.8-32.6-51.6-55.4-88.6-63.4
	c1.5-4.9,2.4-10.5,2.4-16.8c0-24.8-16.1-36.1-31-36.1c-16.1,0-33.2,12.7-33.2,36.1c0,6.3,0.9,11.9,2.4,16.8
	c-37,8.1-68.9,30.9-88.7,63.6c-15.1,1.6-30,14-30,36c0,15.2,5,26.4,12.2,33.3v7.9c-18.5,0.9-33.3,16.3-33.3,35v17.2
	c0,3.3,2.7,5.9,5.9,5.9h40.7c16.8,32.3,46,56.9,80.3,68c-6.6,6.4-10.7,15.3-10.7,25.1l0,17.2c0,3.3,2.7,5.9,5.9,5.9h94.5
	c3.3,0,5.9-2.7,5.9-5.9v-17.2c0-9.8-4.1-18.7-10.6-25.1c34.3-11.2,63.6-35.8,80.3-68h40.7c3.3,0,5.9-2.7,5.9-5.9v-17.2
	C413.7,286.8,398.9,271.4,380.4,270.5L380.4,270.5z M401.8,305.5v11.3l-82.6,0v-11.3c0-12.8,10.4-23.2,23.2-23.2h4.2
	c3.3,0,5.9-2.7,5.9-5.9v-6.7c2.6,0.8,5.3,1.3,8,1.3c2.7,0,5.4-0.4,8-1.3v6.7c0,3.3,2.7,5.9,5.9,5.9h4.2
	C391.4,282.3,401.8,292.7,401.8,305.5L401.8,305.5z M380.7,229.3c0,20.5-10.5,29.8-20.2,29.8s-20.2-9.3-20.2-29.8
	c0-15.9,10.7-24.2,21.3-24.2C370.4,205.1,380.7,211.4,380.7,229.3L380.7,229.3z M285.5,200.5h-82.6v-11.3
	c0-12.8,10.4-23.2,23.2-23.2h4.2c3.3,0,5.9-2.7,5.9-5.9v-6.7c2.6,0.8,5.3,1.3,8,1.3c2.7,0,5.4-0.4,8-1.3v6.7c0,3.3,2.7,5.9,5.9,5.9
	h4.2c12.8,0,23.2,10.4,23.2,23.2L285.5,200.5z M245.3,88.7c8.8,0,19.1,6.3,19.1,24.2c0,20.4-10.5,29.8-20.2,29.8
	c-9.7,0-20.2-9.3-20.2-29.8C224,97.1,234.7,88.7,245.3,88.7L245.3,88.7z M129,205.1c8.8,0,19.1,6.4,19.1,24.2
	c0,20.5-10.5,29.8-20.2,29.8s-20.2-9.3-20.2-29.8C107.7,213.4,118.4,205.1,129,205.1L129,205.1z M109.7,282.3h4.2
	c3.3,0,5.9-2.7,5.9-5.9v-6.7c2.6,0.8,5.3,1.3,8,1.3s5.4-0.4,8-1.3v6.7c0,3.3,2.7,5.9,5.9,5.9h4.2c12.8,0,23.2,10.4,23.2,23.2v11.3
	l-82.6,0v-11.3C86.6,292.7,96.9,282.3,109.7,282.3L109.7,282.3z M244.2,375.4c-9.7,0-20.2-9.3-20.2-29.8c0-15.9,10.7-24.2,21.3-24.2
	c8.8,0,19.1,6.4,19.1,24.2C264.4,366.1,253.9,375.4,244.2,375.4z M226.1,398.6h4.2c3.3,0,5.9-2.7,5.9-5.9V386c2.6,0.8,5.3,1.3,8,1.3
	c2.7,0,5.4-0.4,8-1.3v6.7c0,3.3,2.7,5.9,5.9,5.9h4.2c12.8,0,23.2,10.4,23.2,23.2l0,11.3h-82.6v-11.3
	C202.9,409,213.3,398.6,226.1,398.6L226.1,398.6z M272.6,388.3c-2.7-0.8-5.6-1.4-8.5-1.5v-7.9c7.2-6.9,12.2-18.1,12.2-33.3
	c0-24.8-16.1-36.1-31-36.1c-16.1,0-33.2,12.7-33.2,36.1c0,15.2,5,26.4,12.2,33.3v7.9c-2.9,0.1-5.8,0.7-8.5,1.5
	c-33.9-7.8-63.5-29.7-81-59.6h40.3c3.3,0,5.9-2.7,5.9-5.9v-17.2c0-18.7-14.8-34.1-33.3-35v-7.9c7.2-6.9,12.2-18.1,12.2-33.3
	c0-19.3-9.7-30.4-21.1-34.4c18.7-28.2,47.7-47.5,80.9-54c1.4,2,2.9,3.8,4.5,5.4v7.9c-18.5,0.9-33.3,16.3-33.3,35v17.3
	c0,3.3,2.7,5.9,5.9,5.9h94.5c3.3,0,5.9-2.7,5.9-5.9v-17.3c0-18.7-14.8-34.1-33.3-35v-7.9c1.6-1.6,3.1-3.4,4.5-5.4
	c33.5,6.5,62.6,26.1,81.3,54.6c-11.7,4.6-21.5,16.1-21.5,33.9c0,15.2,5,26.4,12.2,33.3v7.9c-18.5,0.9-33.3,16.3-33.3,35v17.2
	c0,3.3,2.7,5.9,5.9,5.9h40.3C336,358.6,306.5,380.6,272.6,388.3L272.6,388.3z"/>
</svg>
