<?xml version="1.0" encoding="utf-8"?>
<!-- Generator: Adobe Illustrator 26.0.1, SVG Export Plug-In . SVG Version: 6.00 Build 0)  -->
<svg version="1.1" id="Ebene_1" xmlns="http://www.w3.org/2000/svg" xmlns:xlink="http://www.w3.org/1999/xlink" x="0px" y="0px"
	 viewBox="0 0 498 490" style="enable-background:new 0 0 498 490;" xml:space="preserve">
<g>
	<path d="M191.2,300.3c4.5,0,8.6,2,11.4,5.6c1,1.2,2.4,1.9,4,1.9h12.2c2.8,0,5-2.3,5-5v-40h35v4.9c-4.8,4.6-7.5,10.9-7.5,17.7
		c0,13.5,11,24.5,24.5,24.5s24.5-11,24.5-24.5c0-6.7-2.7-13-7.5-17.7v-4.9h40c2.8,0,5-2.3,5-5l0-99.6c0-10.7-8.8-19.5-19.5-19.5
		H119.1c-10.7,0-19.5,8.7-19.5,19.5v199.2c0,10.8,8.7,19.5,19.5,19.5h99.6c2.8,0,5-2.3,5-5v-45c0-2.8-2.3-5-5-5h-12.2
		c-1.5,0-3,0.7-4,1.9c-2.8,3.5-6.9,5.6-11.4,5.6c-8,0-14.4-6.5-14.4-14.4C176.7,306.8,183.2,300.3,191.2,300.3L191.2,300.3z
		 M223.8,148.7h94.6c5.2,0,9.4,4.2,9.4,9.4v94.6h-40c-2.8,0-5,2.3-5,5v12.2c0,1.5,0.7,3,1.9,4c3.5,2.8,5.6,6.9,5.6,11.4
		c0,8-6.5,14.4-14.4,14.4c-8,0-14.4-6.5-14.4-14.4c0-4.5,2-8.6,5.6-11.4c1.2-1,1.9-2.4,1.9-4v-12.2c0-2.8-2.3-5-5-5h-40v-35h4.9
		c4.6,4.8,10.9,7.5,17.7,7.5c13.5,0,24.5-11,24.5-24.5c0-13.5-11-24.5-24.5-24.5c-6.7,0-13,2.7-17.7,7.5h-4.9L223.8,148.7
		L223.8,148.7z M119.1,148.7h94.6v40c0,2.8,2.3,5,5,5H231c1.6,0,3-0.7,4-1.9c2.8-3.5,6.9-5.6,11.4-5.6c8,0,14.4,6.5,14.4,14.4
		c0,8-6.5,14.4-14.4,14.4c-4.5,0-8.6-2-11.4-5.6c-1-1.2-2.4-1.9-4-1.9h-12.2c-2.8,0-5,2.3-5,5v40h-35v-4.9
		c4.8-4.6,7.5-10.9,7.5-17.7c0-13.5-11-24.5-24.5-24.5c-13.5,0-24.5,11-24.5,24.5c0,6.7,2.7,13,7.5,17.7v4.9l-35,0v-94.6
		C109.7,152.9,114,148.7,119.1,148.7L119.1,148.7z M191.2,339.3c6.7,0,13-2.7,17.6-7.5h4.9v35l-94.6,0c-5.2,0-9.4-4.2-9.4-9.4
		l0-94.6h40c2.8,0,5-2.3,5-5v-12.2c0-1.6-0.7-3-1.9-4c-3.5-2.8-5.6-6.9-5.6-11.4c0-8,6.5-14.4,14.4-14.4c8,0,14.4,6.5,14.4,14.4
		c0,4.5-2,8.6-5.6,11.4c-1.2,1-1.9,2.4-1.9,4v12.2c0,2.8,2.3,5,5,5h40v35h-4.9c-4.6-4.8-10.9-7.5-17.6-7.5
		c-13.5,0-24.5,11-24.5,24.5C166.6,328.3,177.6,339.3,191.2,339.3L191.2,339.3z"/>
	<path d="M405.3,327.1h-45c-2.8,0-5,2.3-5,5v12.2c0,1.5,0.7,3,1.9,4c3.5,2.8,5.6,6.9,5.6,11.4c0,8-6.5,14.4-14.4,14.4
		s-14.4-6.5-14.4-14.4c0-4.5,2-8.6,5.6-11.4c1.2-1,1.9-2.4,1.9-4l0-12.2c0-2.8-2.3-5-5-5h-45c-2.8,0-5,2.3-5,5v40h-4.9
		c-4.6-4.8-10.9-7.5-17.7-7.5c-13.5,0-24.5,11-24.5,24.5c0,13.5,11,24.5,24.5,24.5c6.7,0,13-2.7,17.7-7.5h4.9l0,40c0,2.8,2.3,5,5,5
		h99.6c10.8,0,19.5-8.7,19.5-19.5v-99.6C410.3,329.4,408.1,327.1,405.3,327.1L405.3,327.1z M400.2,431.8c0,5.2-4.2,9.4-9.4,9.4
		h-94.6v-40c0-2.8-2.3-5-5-5H279c-1.5,0-3,0.7-4,1.9c-2.8,3.5-6.9,5.6-11.4,5.6c-8,0-14.4-6.5-14.4-14.4c0-8,6.5-14.4,14.4-14.4
		c4.5,0,8.6,2,11.4,5.6c1,1.2,2.4,1.9,4,1.9h12.2c2.8,0,5-2.3,5-5v-40h35v4.9c-4.8,4.6-7.5,10.9-7.5,17.7c0,13.5,11,24.5,24.5,24.5
		c13.5,0,24.5-11,24.5-24.5c0-6.7-2.7-13-7.5-17.6l0-4.9h35L400.2,431.8L400.2,431.8z"/>
</g>
</svg>
