<?xml version="1.0" encoding="utf-8"?>
<!-- Generator: Adobe Illustrator 27.0.1, SVG Export Plug-In . SVG Version: 6.00 Build 0)  -->
<svg version="1.1" xmlns="http://www.w3.org/2000/svg" xmlns:xlink="http://www.w3.org/1999/xlink" x="0px" y="0px"
	 viewBox="0 0 70 70" style="enable-background:new 0 0 70 70;" xml:space="preserve">
<style type="text/css">
	.st0{display:none;}
	.st1{display:inline;fill:#FDB400;}
	.st2{fill:#FFFFFF;}
	.st3{fill:none;stroke:#FFFFFF;stroke-miterlimit:10;}
	.st4{display:inline;}
	.st5{display:inline;fill:none;stroke:#FFFFFF;stroke-miterlimit:10;}
	.st6{font-family:'NunitoSans-ExtraBold';}
	.st7{font-size:16.5602px;}
	.st8{fill:#FDB400;}
</style>
<g id="v2" class="st0">
	<polygon class="st1" points="35.3,5.6 39.4,2.6 42.6,6.5 47.3,4.6 49.5,9.2 54.5,8.5 55.4,13.5 60.5,14.1 60.1,19.2 64.9,21.1 
		63.3,25.9 67.4,28.9 64.7,33.1 67.9,37 64.2,40.5 66.4,45.1 61.9,47.5 62.9,52.5 58,53.7 57.7,58.8 52.6,58.7 51,63.6 46.1,62.3 
		43.4,66.6 39,64.1 35.3,67.6 31.6,64.1 27.2,66.6 24.5,62.3 19.6,63.6 18,58.7 13,58.8 12.7,53.7 7.8,52.5 8.7,47.5 4.3,45.1 
		6.4,40.5 2.7,37 6,33.1 3.2,28.9 7.4,25.9 5.8,21.1 10.5,19.2 10.2,14.1 15.2,13.5 16.1,8.5 21.2,9.2 23.3,4.6 28,6.5 31.2,2.6 	
		"/>
	<g>
		<path class="st2" d="M24.1,33.5c-0.5-0.1-1-0.4-1.4-0.9c-0.4-0.4-0.7-1-0.9-1.6c-0.2-0.7-0.3-1.3-0.2-1.9s0.3-1.1,0.7-1.5
			c0.4-0.4,0.8-0.7,1.4-0.9c0.3-0.1,0.7-0.2,1-0.2c0.3,0,0.7,0,1,0.1c0.2,0.1,0.4,0.1,0.5,0.2c0.1,0.1,0.2,0.1,0.2,0.2
			c0,0.1,0,0.1,0,0.2c0,0.1-0.1,0.1-0.1,0.1c0,0-0.1,0-0.2,0c-0.1,0-0.2,0-0.2-0.1c-0.3-0.1-0.6-0.2-0.9-0.2c-0.3,0-0.6,0-1,0.1
			c-0.8,0.2-1.2,0.7-1.5,1.3s-0.2,1.4,0,2.3c0.3,0.9,0.7,1.5,1.3,1.9c0.6,0.4,1.2,0.4,2,0.2c0.4-0.1,0.7-0.3,0.9-0.5
			s0.4-0.4,0.6-0.7c0.1-0.2,0.2-0.3,0.3-0.3c0.1,0,0.1,0,0.2,0s0.1,0.1,0.1,0.1c0,0.1,0,0.2,0,0.3s-0.1,0.2-0.3,0.4
			c-0.2,0.2-0.4,0.5-0.7,0.7c-0.3,0.2-0.6,0.4-1,0.5C25.2,33.6,24.7,33.6,24.1,33.5z"/>
		<path class="st2" d="M33,26.3l1.3,4c0,0.1,0,0.2,0,0.2s-0.1,0.1-0.2,0.1c-0.1,0-0.2,0-0.2,0c-0.1,0-0.1-0.1-0.2-0.2l-0.3-1
			c-0.1,0.5-0.2,0.9-0.5,1.2s-0.7,0.6-1.2,0.8c-0.4,0.1-0.8,0.2-1.2,0.1c-0.4-0.1-0.8-0.2-1-0.5c-0.3-0.2-0.5-0.5-0.6-0.9
			c-0.2-0.5-0.1-0.9,0-1.2c0.2-0.4,0.5-0.7,1.1-1c0.5-0.3,1.4-0.6,2.4-1l0.3-0.1l-0.2-0.6c-0.2-0.6-0.5-1.1-0.8-1.3
			c-0.4-0.2-0.8-0.2-1.4,0c-0.4,0.1-0.8,0.3-1.1,0.5c-0.3,0.2-0.5,0.4-0.7,0.6c0,0-0.1,0.1-0.2,0.2c-0.1,0.1-0.2,0.2-0.2,0.2
			c-0.1,0-0.1,0-0.2,0c-0.1,0-0.1-0.1-0.1-0.2c-0.1-0.2,0-0.4,0.3-0.7c0.3-0.3,0.5-0.5,0.9-0.8c0.3-0.2,0.7-0.4,1.1-0.5
			C31.5,24.1,32.5,24.7,33,26.3z M32.5,30.3c0.3-0.3,0.4-0.6,0.5-1c0.1-0.4,0-0.8-0.1-1.2l-0.2-0.5l-0.3,0.1c-1,0.3-1.7,0.6-2.1,0.8
			c-0.5,0.2-0.8,0.5-0.9,0.7s-0.1,0.5,0,0.9c0.1,0.4,0.4,0.7,0.8,0.9c0.4,0.2,0.8,0.2,1.3,0C31.9,30.8,32.3,30.6,32.5,30.3z"/>
		<path class="st2" d="M39.6,28.7c0.1,0.2,0,0.3-0.3,0.4l-0.4,0.1c-0.7,0.2-1.2,0.1-1.7-0.1c-0.4-0.3-0.8-0.8-1-1.5L35,23.7
			l-1.1,0.4c-0.1,0-0.1,0-0.2,0s-0.1-0.1-0.1-0.1c0-0.1,0-0.1,0-0.2c0-0.1,0.1-0.1,0.1-0.1l1.1-0.4l-0.6-1.8c0-0.1,0-0.2,0-0.3
			c0-0.1,0.1-0.1,0.2-0.1c0.1,0,0.2,0,0.2,0s0.1,0.1,0.2,0.2l0.6,1.8l1.8-0.6c0.1,0,0.1,0,0.2,0c0.1,0,0.1,0.1,0.1,0.2
			c0,0.1,0,0.1,0,0.2s-0.1,0.1-0.2,0.1l-1.8,0.6l1.2,3.8c0.2,0.6,0.5,1,0.8,1.2c0.3,0.2,0.7,0.2,1.3,0.1l0.4-0.1
			C39.4,28.5,39.5,28.6,39.6,28.7z"/>
		<path class="st2" d="M45.7,25.6c0.1,0,0.1,0.1,0.1,0.1c0,0.1,0,0.2,0,0.3c0,0.1-0.1,0.2-0.3,0.4c-0.5,0.6-1.1,1-1.8,1.2
			c-1,0.3-1.8,0.3-2.6-0.2c-0.8-0.4-1.3-1.2-1.6-2.2c-0.2-0.7-0.3-1.3-0.2-1.9s0.3-1.1,0.7-1.5s0.8-0.7,1.5-0.9
			c0.8-0.3,1.6-0.2,2.2,0.2c0.7,0.4,1.1,1,1.4,2c0,0.2,0.1,0.3,0,0.4c0,0.1-0.1,0.2-0.3,0.2l-4.7,1.5c0.3,0.9,0.7,1.5,1.3,1.8
			s1.3,0.4,2.1,0.1c0.4-0.1,0.8-0.3,1-0.5c0.2-0.2,0.5-0.5,0.7-0.7c0.2-0.2,0.2-0.3,0.3-0.3C45.5,25.6,45.6,25.6,45.7,25.6z
			 M40.1,22.7c-0.3,0.6-0.3,1.2-0.2,2l4.5-1.5c-0.3-0.8-0.7-1.3-1.2-1.6c-0.5-0.3-1.1-0.4-1.8-0.1C40.8,21.7,40.4,22.1,40.1,22.7z"
			/>
		<path class="st2" d="M23.5,48.9c-0.9,0.3-1.8,0.4-2.6,0.5c-0.8,0-1.6-0.1-2.2-0.3l0.1-1.8c0.6,0.2,1.3,0.3,2,0.3s1.4-0.1,2.2-0.3
			c0.9-0.3,1.4-0.6,1.7-1s0.4-0.8,0.2-1.3c-0.1-0.4-0.4-0.6-0.7-0.8c-0.3-0.1-0.9-0.2-1.6-0.1l-1.9,0.2c-2.2,0.2-3.5-0.5-4-2.2
			c-0.2-0.7-0.2-1.4,0-2c0.2-0.7,0.6-1.2,1.2-1.7s1.3-0.9,2.2-1.2c0.8-0.2,1.5-0.4,2.3-0.3c0.8,0,1.4,0.2,2,0.4L24.2,39
			c-1.1-0.5-2.4-0.5-3.6-0.1c-0.8,0.2-1.3,0.6-1.6,1s-0.4,0.9-0.2,1.4c0.1,0.4,0.4,0.7,0.7,0.8c0.3,0.2,0.8,0.2,1.5,0.1l1.9-0.2
			c1.1-0.1,2,0,2.7,0.3s1.1,0.9,1.4,1.7c0.2,0.7,0.2,1.3,0,2c-0.2,0.6-0.6,1.2-1.2,1.7C25.2,48.2,24.4,48.6,23.5,48.9z"/>
		<path class="st2" d="M33.1,45.9c-2.1,0.7-3.5,0-4.1-2.1l-1.1-3.5l-1.5,0.5l-0.5-1.5l1.5-0.5l-0.8-2.4l2-0.7l0.8,2.4l2.4-0.8
			l0.5,1.5l-2.4,0.8L31,43c0.2,0.5,0.4,0.9,0.7,1.1c0.3,0.2,0.7,0.2,1.2,0c0.2,0,0.3-0.1,0.5-0.2s0.3-0.2,0.5-0.3l0.8,1.4
			c-0.2,0.2-0.4,0.3-0.7,0.5C33.7,45.6,33.4,45.8,33.1,45.9z"/>
		<path class="st2" d="M39.3,43.9c-0.8,0.3-1.6,0.3-2.3,0.2s-1.3-0.5-1.9-1c-0.5-0.5-0.9-1.2-1.2-2s-0.3-1.6-0.2-2.3
			c0.1-0.7,0.5-1.3,1-1.9c0.5-0.5,1.2-0.9,2-1.2c0.8-0.3,1.6-0.3,2.3-0.2s1.3,0.5,1.9,1s0.9,1.2,1.2,2s0.3,1.6,0.2,2.3
			c-0.1,0.7-0.5,1.4-1,1.9C40.7,43.2,40.1,43.6,39.3,43.9z M38.8,42.4c0.6-0.2,1-0.6,1.2-1.1s0.2-1.3-0.1-2.1
			c-0.3-0.9-0.7-1.5-1.2-1.8c-0.5-0.3-1.1-0.4-1.7-0.2c-0.6,0.2-1,0.6-1.2,1.1c-0.2,0.5-0.2,1.2,0.1,2.1c0.3,0.8,0.7,1.4,1.2,1.8
			C37.6,42.5,38.2,42.6,38.8,42.4z"/>
		<path class="st2" d="M44.9,41.9L42.4,34l2-0.6l0.5,1.4c0.1-1.1,0.8-1.9,2-2.4l0.6-0.2l0.7,1.7L47,34.3c-1.3,0.5-1.7,1.5-1.3,2.7
			l1.4,4.3L44.9,41.9z"/>
		<path class="st2" d="M53.4,42.4l0.4-3.7l-5.7-6.5l2.2-0.7l4,4.8l0.5-6.3l2-0.6l-1.3,12.4L53.4,42.4z"/>
	</g>
	<path class="st3" d="M49,55.6"/>
	<g>
		<g class="st4">
			<path class="st3" d="M29.6,55.1c0,1.4,0.6,2.5,1.3,2.5h9c0.7,0,1.3-1.1,1.3-2.5"/>
		</g>
		<line class="st5" x1="35.4" y1="54.7" x2="35.4" y2="49.3"/>
		<path class="st5" d="M37.8,52.5c0,0-1.9,2.2-2.4,2.7C35,54.7,33,52.5,33,52.5"/>
	</g>
	<g id="Storys_mit_Logo" class="st4">
		<text transform="matrix(0.9554 -0.2954 0.2954 0.9554 13.0024 49.5384)"><tspan x="0" y="0" class="st2 st6 st7">St</tspan><tspan x="17.3" y="0" class="st2 st6 st7">  </tspan><tspan x="28.2" y="0" class="st2 st6 st7">rys</tspan></text>
		<g id="Bildmarke">
			<polygon class="st2" points="36,36.3 33.2,35.7 31.2,37.8 32,40.7 34.9,41.3 36.9,39.2 			"/>
			<g>
				<polygon class="st2" points="38,39.8 35.7,42.4 36,43.4 39,40.1 				"/>
				<path class="st2" d="M34.9,42.6L31,41.7L29.9,38l-1-0.2l1.4,4.5c0,0.2,0.2,0.3,0.3,0.3l4.6,1.1L34.9,42.6z"/>
				<path class="st2" d="M30,37.2l2.7-2.9l3.8,0.9l0.7-0.8l-4.6-1.1c-0.2,0-0.3,0-0.4,0.1L29,36.9L30,37.2L30,37.2z"/>
			</g>
		</g>
	</g>
	<g id="Wortmarke" class="st4">
		<path class="st2" d="M32.8,22.5l1-0.3l-0.5-1.6l1.4-0.4l0.5,1.6l1.3-0.4l0.3,1.1l-1.3,0.4l0.8,2.6c0.3,0.8,0.5,1,1.1,0.8
			c0.1,0,0.2-0.1,0.4-0.2l0.3,1.1c-0.3,0.2-0.5,0.3-0.8,0.3c-0.7,0.2-1.3,0.2-1.7-0.1c-0.3-0.2-0.4-0.5-0.7-1.4l-0.9-2.8l-0.9,0.3
			L32.8,22.5L32.8,22.5z"/>
		<path class="st2" d="M42.4,20.2c-0.6-0.4-1.3-0.4-2.2-0.2c-0.6,0.2-1,0.5-1.4,0.8c-0.4,0.4-0.6,0.9-0.7,1.4
			c-0.1,0.5-0.1,1.1,0.1,1.7c0.3,0.9,0.8,1.6,1.5,2c0.7,0.4,1.6,0.4,2.5,0.1c0.4-0.1,0.8-0.3,1.2-0.6c0.4-0.3,0.7-0.5,0.9-0.9
			l-0.8-0.9c-0.4,0.6-0.9,1-1.6,1.2c-0.5,0.2-1,0.2-1.3,0c-0.4-0.2-0.6-0.5-0.8-1l4-1.2l-0.1-0.5C43.5,21.2,43,20.6,42.4,20.2
			L42.4,20.2z M40.6,21.1c0.4-0.1,0.8-0.1,1.1,0.1c0.3,0.2,0.5,0.5,0.7,1L39.6,23c-0.1-0.5,0-0.9,0.1-1.2
			C39.9,21.4,40.2,21.2,40.6,21.1L40.6,21.1z"/>
		<path class="st2" d="M24.4,31.7c-1.7,0.5-3.5-0.4-4-2.1l0,0c-0.5-1.7,0.4-3.5,2.1-4.1c1-0.3,1.8-0.2,2.7,0.3l0,0L24.6,27l0,0
			c-0.5-0.3-1-0.5-1.7-0.3c-0.9,0.3-1.4,1.3-1.1,2.4l0,0c0.3,1.1,1.3,1.6,2.3,1.3c0.6-0.2,0.9-0.5,1.3-1.2l0,0l1.1,0.6l0,0
			C26.2,30.5,25.7,31.3,24.4,31.7L24.4,31.7z"/>
		<path class="st2" d="M30.3,23.3l1.3-0.4l1.8,5.8l-1.3,0.4l-0.2-0.6c-0.4,0.7-0.9,1.1-1.5,1.3c-0.8,0.2-1.5,0.2-2.2-0.3
			c-0.7-0.4-1.2-1.1-1.5-2c-0.3-0.9-0.2-1.7,0.1-2.4c0.3-0.7,0.9-1.2,1.7-1.5c0.7-0.2,1.4-0.1,2.1,0.3L30.3,23.3L30.3,23.3z
			 M28,27.1c0.2,0.6,0.5,1,0.9,1.2c0.4,0.3,0.9,0.3,1.3,0.2c0.5-0.2,0.8-0.4,1-0.9c0.2-0.4,0.2-0.9,0-1.5s-0.5-0.9-0.9-1.2
			c-0.4-0.3-0.9-0.3-1.3-0.1c-0.5,0.1-0.8,0.4-1,0.9C27.9,26.1,27.9,26.6,28,27.1L28,27.1z"/>
	</g>
</g>
<g id="v3">
	<polygon class="st8" points="35.4,5.6 39.5,2.6 42.7,6.5 47.4,4.6 49.6,9.2 54.6,8.5 55.5,13.5 60.6,14.1 60.2,19.2 65,21.1 
		63.4,25.9 67.5,28.9 64.7,33.1 68,37 64.3,40.5 66.5,45.1 62,47.5 63,52.5 58.1,53.7 57.8,58.8 52.7,58.7 51.1,63.6 46.2,62.3 
		43.5,66.6 39.1,64.1 35.4,67.6 31.7,64.1 27.3,66.6 24.6,62.3 19.7,63.6 18.1,58.7 13.1,58.8 12.8,53.7 7.8,52.5 8.8,47.5 
		4.3,45.1 6.5,40.5 2.8,37 6.1,33.1 3.3,28.9 7.5,25.9 5.9,21.1 10.6,19.2 10.2,14.1 15.3,13.5 16.2,8.5 21.2,9.2 23.4,4.6 
		28.1,6.5 31.3,2.6 	"/>
	<g>
		<path class="st2" d="M19.4,49.1c-1,0.2-1.9,0.3-2.8,0.2c-0.9-0.1-1.6-0.3-2.4-0.7l0.2-0.8c0.8,0.4,1.5,0.6,2.2,0.7
			c0.7,0.1,1.6,0,2.5-0.2c1.2-0.3,2.1-0.8,2.6-1.4c0.5-0.6,0.7-1.4,0.5-2.2c-0.2-0.7-0.5-1.1-1.1-1.4c-0.5-0.3-1.4-0.4-2.4-0.3
			l-1.9,0.1c-1.2,0-2.2-0.1-2.9-0.5c-0.7-0.4-1.2-1.1-1.4-2c-0.2-0.7-0.1-1.4,0.1-2.1c0.2-0.6,0.7-1.2,1.3-1.7
			c0.6-0.5,1.3-0.8,2.2-1c1.8-0.4,3.3-0.2,4.7,0.6l-0.2,0.8c-0.7-0.4-1.4-0.7-2.1-0.8c-0.7-0.1-1.4,0-2.2,0.1
			c-1.1,0.3-1.9,0.7-2.4,1.4c-0.5,0.7-0.7,1.5-0.5,2.4c0.2,0.7,0.5,1.2,1,1.5c0.5,0.3,1.3,0.4,2.2,0.4l1.9-0.1
			c1.3,0,2.3,0.1,3.1,0.5c0.7,0.4,1.2,1,1.4,1.8c0.2,0.7,0.1,1.3-0.1,1.9s-0.7,1.1-1.3,1.6C21.1,48.5,20.4,48.9,19.4,49.1z"/>
		<path class="st2" d="M29.1,46.8c-0.9,0.2-1.7,0.1-2.3-0.3c-0.6-0.4-1-1.1-1.2-2.1L24.2,39l-1.8,0.4l-0.2-0.7l1.8-0.4l-0.7-2.8
			l0.8-0.2l0.7,2.8l2.9-0.7l0.2,0.7L25,38.9l1.3,5.2c0.2,0.8,0.5,1.4,0.9,1.7c0.4,0.3,1,0.4,1.8,0.2c0.2-0.1,0.4-0.1,0.6-0.2
			c0.2-0.1,0.3-0.2,0.5-0.3l0.3,0.6c-0.1,0.1-0.3,0.2-0.5,0.4C29.6,46.6,29.3,46.7,29.1,46.8z"/>
		<path class="st2" d="M34.7,45.4c-0.8,0.2-1.6,0.2-2.3-0.1c-0.7-0.2-1.3-0.7-1.8-1.3c-0.5-0.6-0.9-1.4-1.1-2.3
			c-0.2-0.9-0.3-1.8-0.1-2.6c0.2-0.8,0.5-1.4,1-1.9c0.5-0.5,1.2-0.9,2-1.1c0.8-0.2,1.6-0.2,2.3,0.1c0.7,0.2,1.3,0.7,1.8,1.3
			c0.5,0.6,0.9,1.4,1.1,2.3s0.3,1.8,0.1,2.6c-0.2,0.8-0.5,1.4-1,1.9C36.1,44.9,35.5,45.2,34.7,45.4z M34.5,44.7
			c1-0.2,1.7-0.8,2.1-1.6c0.4-0.8,0.5-1.8,0.2-3.1s-0.8-2.1-1.6-2.7c-0.7-0.5-1.6-0.7-2.6-0.5c-1,0.2-1.7,0.8-2.1,1.6
			c-0.4,0.8-0.5,1.9-0.2,3.1s0.8,2.1,1.6,2.7C32.7,44.8,33.5,44.9,34.5,44.7z"/>
		<path class="st2" d="M40.7,43.8l-2.2-8.9l0.8-0.2l0.4,1.6c0.1-0.6,0.4-1.2,0.8-1.6c0.4-0.4,1-0.7,1.8-1l0.4-0.1l0.3,0.7l-0.6,0.2
			c-0.9,0.3-1.5,0.8-1.9,1.4c-0.4,0.7-0.5,1.4-0.3,2.3l1.3,5.4L40.7,43.8z"/>
		<path class="st2" d="M48.9,45.3l0.6-3.6l-6-8.1l0.9-0.2l5.3,7.3l1.4-8.9l0.9-0.2l-2.3,13.5L48.9,45.3z"/>
		<path class="st2" d="M58.3,39.7c-0.6,0.2-1.3,0.2-1.9,0.1c-0.6-0.1-1.2-0.2-1.7-0.5l0.2-0.7c0.5,0.3,1.1,0.4,1.6,0.5
			c0.6,0,1.1,0,1.6-0.1c0.8-0.2,1.4-0.5,1.7-0.9c0.4-0.4,0.5-0.9,0.3-1.4c-0.1-0.4-0.3-0.7-0.7-0.9c-0.3-0.2-0.8-0.3-1.5-0.3l-1.6,0
			c-0.8,0-1.5-0.1-1.9-0.4c-0.5-0.3-0.8-0.7-0.9-1.3c-0.2-0.8,0-1.4,0.4-2c0.5-0.6,1.2-1,2.2-1.3c0.6-0.1,1.2-0.2,1.8-0.1
			c0.6,0.1,1.1,0.3,1.5,0.6l-0.2,0.7c-0.9-0.6-1.9-0.7-2.9-0.5c-0.8,0.2-1.3,0.5-1.6,0.9c-0.3,0.4-0.4,0.9-0.3,1.5
			c0.1,0.4,0.3,0.7,0.6,0.9c0.3,0.2,0.8,0.3,1.4,0.3l1.6,0c0.8,0,1.5,0.1,2,0.4s0.8,0.7,0.9,1.3c0.2,0.8,0,1.4-0.5,2
			C60.1,39,59.3,39.4,58.3,39.7z"/>
	</g>
	<g id="cate_logo">
		<g>
			<polygon class="st2" points="24.3,26 21.7,25.3 19.8,27.2 20.4,29.8 23,30.6 25,28.7 			"/>
			<g>
				<polygon class="st2" points="26,29.4 23.6,31.6 23.9,32.5 26.9,29.6 				"/>
				<path class="st2" d="M22.9,31.8l-3.5-1l-0.9-3.5l-0.9-0.3l1,4.2c0,0.1,0.1,0.3,0.3,0.3l4.2,1.2L22.9,31.8z"/>
				<path class="st2" d="M18.8,26.5l2.6-2.5l3.5,1l0.7-0.7l-4.2-1.2c-0.1,0-0.3,0-0.4,0.1l-3.2,3L18.8,26.5L18.8,26.5z"/>
			</g>
		</g>
		<g>
			<path class="st2" d="M38,21.9l0.8-0.2l-0.3-1.2l1.1-0.3l0.3,1.2l1-0.2L41,22l-1,0.2l0.5,2c0.2,0.6,0.3,0.8,0.8,0.6
				c0.1,0,0.2,0,0.3-0.1l0.2,0.8c-0.2,0.1-0.4,0.2-0.6,0.2c-0.6,0.1-1,0.1-1.2-0.1c-0.2-0.2-0.3-0.4-0.5-1l-0.5-2.1l-0.7,0.2
				L38,21.9L38,21.9z"/>
			<path class="st2" d="M45.2,20.6c-0.4-0.3-1-0.4-1.6-0.2c-0.4,0.1-0.8,0.3-1,0.6c-0.3,0.3-0.5,0.6-0.6,1c-0.1,0.4-0.1,0.8,0,1.3
				c0.2,0.7,0.5,1.2,1,1.5c0.5,0.3,1.1,0.4,1.9,0.2c0.3-0.1,0.6-0.2,0.9-0.4c0.3-0.2,0.5-0.4,0.7-0.6l-0.5-0.7
				c-0.3,0.4-0.7,0.7-1.2,0.8c-0.4,0.1-0.7,0.1-1-0.1c-0.3-0.1-0.4-0.4-0.6-0.8l3-0.7l-0.1-0.3C45.9,21.4,45.6,20.9,45.2,20.6
				L45.2,20.6z M43.8,21.2c0.3-0.1,0.6,0,0.8,0.1c0.2,0.1,0.4,0.4,0.5,0.7l-2,0.5c0-0.4,0-0.7,0.1-0.9
				C43.3,21.4,43.5,21.2,43.8,21.2L43.8,21.2z"/>
			<path class="st2" d="M31.4,28.3c-1.3,0.3-2.6-0.5-2.9-1.8l0,0c-0.3-1.3,0.5-2.6,1.8-2.9c0.7-0.2,1.4-0.1,2,0.3l0,0l-0.5,0.9l0,0
				c-0.3-0.2-0.7-0.4-1.3-0.3c-0.7,0.2-1.1,0.9-0.9,1.7l0,0c0.2,0.8,0.9,1.3,1.6,1.1c0.4-0.1,0.7-0.3,1-0.8l0,0l0.8,0.5l0,0
				C32.7,27.5,32.3,28,31.4,28.3L31.4,28.3z"/>
			<path class="st2" d="M36.1,22.3l1-0.2l1.1,4.4l-1,0.2L37,26.2c-0.3,0.5-0.7,0.8-1.2,0.9c-0.6,0.1-1.2,0-1.7-0.3
				c-0.5-0.3-0.8-0.9-1-1.5s-0.1-1.2,0.2-1.8s0.7-0.9,1.3-1c0.5-0.1,1,0,1.5,0.3L36.1,22.3L36.1,22.3z M34.2,25.1
				c0.1,0.4,0.3,0.7,0.6,0.9c0.3,0.2,0.6,0.3,1,0.2c0.4-0.1,0.6-0.3,0.8-0.6c0.2-0.3,0.2-0.7,0.1-1.1c-0.1-0.4-0.3-0.7-0.6-0.9
				c-0.3-0.2-0.6-0.3-1-0.2c-0.3,0.1-0.6,0.3-0.8,0.6C34.2,24.3,34.1,24.7,34.2,25.1L34.2,25.1z"/>
		</g>
	</g>
</g>
</svg>
