<?xml version="1.0" encoding="utf-8"?>
<!-- Generator: Adobe Illustrator 26.0.1, SVG Export Plug-In . SVG Version: 6.00 Build 0)  -->
<svg version="1.1" id="Ebene_1" xmlns="http://www.w3.org/2000/svg" xmlns:xlink="http://www.w3.org/1999/xlink" x="0px" y="0px"
	 viewBox="0 0 498 490" style="enable-background:new 0 0 498 490;" xml:space="preserve">
<g>
	<path d="M415,338l-48.5-41c1.6-2.9,2.6-6.2,2.9-9.6c0.6-6.6-1.5-13-5.7-18c-3.1-3.7-7.2-6.4-11.7-7.7c6.7-9,6.7-21.8-0.9-30.8
		c-3.3-3.9-7.6-6.6-12.4-7.9c5.4-8.8,4.8-20.5-2.2-28.9c-3.9-4.6-9.3-7.6-15.2-8.5c2.7-8,1.3-17.1-4.5-24c-4.2-5-10.2-8.1-16.8-8.7
		c-6.6-0.6-13,1.5-18.1,5.7l-0.9,0.8l-27.8-13c-14.6-7.6-27.3-1.6-33.5,7.6c-2.1,3.1-3.3,6.4-4,9.7l-6.1-5.1
		c-10.4-8.8-26.1-7.4-34.9,3c-5.8,6.9-7.2,16.1-4.5,24c-6,0.9-11.3,3.9-15.2,8.5c-4.2,5-6.3,11.4-5.7,18c0.3,3.9,1.5,7.6,3.5,10.8
		c-4.7,1.3-9.1,3.9-12.4,7.9c-7.6,9-7.6,21.8-0.9,30.8c-4.4,1.3-8.5,3.9-11.7,7.7c-6.7,8-7.5,19-2.9,27.6l-48.6,41
		c-2.5,2.1-2.8,5.9-0.7,8.4c1.2,1.4,2.9,2.1,4.6,2.1c1.4,0,2.7-0.5,3.8-1.4l48.7-41.1l19.5,16.5c4.5,3.8,10.1,5.8,15.9,5.8
		c0.7,0,1.4,0,2.1-0.1c6.6-0.6,12.6-3.6,16.8-8.7c4.3-5,6.3-11.4,5.7-18c-0.3-3.5-1.3-6.8-2.9-9.8c4.9-1.2,9.5-3.8,13.1-8
		c4.8-5.7,6.5-13,5.4-19.9h0c7,0,13.8-2.9,18.5-8.4c4.4-4.4,6.6-10.4,6.4-16.9c0-0.2-0.1-0.4-0.1-0.6c1,0.1,1.9,0.3,2.9,0.3
		c0.7,0,1.4,0,2.1-0.1c6.6-0.6,12.6-3.6,16.5-8.3c4.4-4.4,6.7-10.4,6.4-16.8c-0.2-5.9-2.6-11.4-6.5-15.8l34.9-29.4
		c2.6-2.2,5.9-3.3,9.4-2.9c3.4,0.3,6.5,1.9,8.7,4.5c4.5,5.4,3.9,13.5-1.5,18.1l-4.5,3.8l0,0c-2.5,2.1-2.8,5.9-0.7,8.4
		c2.1,2.5,5.9,2.8,8.4,0.7l0,0c2.6-2.2,5.9-3.2,9.3-2.9c3.4,0.3,6.5,1.9,8.7,4.5c4.6,5.4,3.9,13.5-1.5,18.1l-9.6,8.1c0,0,0,0,0,0
		c-2.5,2.1-2.8,5.9-0.7,8.4c2.1,2.5,5.9,2.8,8.4,0.7h0c2.6-2.2,6-3.2,9.3-3c3.4,0.3,6.5,1.9,8.7,4.5c4.5,5.4,3.9,13.5-1.5,18.1
		l-11.6,9.8l0,0c-2.5,2.1-2.8,5.9-0.7,8.4c2.1,2.5,5.9,2.8,8.4,0.7l0,0c2.6-2.2,5.9-3.2,9.3-2.9c3.4,0.3,6.5,1.9,8.7,4.5
		c2.2,2.6,3.3,5.9,3,9.3c-0.3,3.4-1.9,6.5-4.5,8.7l-54.2,45.8c-22.1,18.7-40.4,16.7-67.8,11.2c-1.8-0.4-3.6,0.1-5,1.3l-81.6,68.9
		c-2.5,2.1-2.8,5.9-0.7,8.4c1.2,1.4,2.9,2.1,4.6,2.1c1.4,0,2.7-0.5,3.8-1.4l79.4-67c11.3,2.2,21.7,3.7,31.7,3.3l76.2,63.7
		c1.1,0.9,2.5,1.4,3.8,1.4c1.7,0,3.4-0.7,4.6-2.1c2.1-2.5,1.8-6.3-0.7-8.4l-68.1-57c9-2.6,18-7.3,27.5-15.3l52.2-44l48.7,41.1
		c1.1,0.9,2.5,1.4,3.8,1.4c1.7,0,3.4-0.7,4.6-2.1C417.9,343.8,417.6,340.1,415,338L415,338z M230.2,175.9
		c-4.5-3.8-3.7-10.7-0.6-15.3c1.5-2.3,7.3-9.2,18.3-3.5l23.1,10.8l-25.2,21.3L230.2,175.9L230.2,175.9
		C230.2,175.9,230.2,175.9,230.2,175.9L230.2,175.9z M178.1,311.8c-2.2,2.6-5.3,4.2-8.7,4.5c-3.5,0.3-6.7-0.8-9.3-3l-21.6-18.2
		c-5.4-4.6-6.1-12.7-1.5-18.1c4.5-5.4,12.5-6.1,17.9-1.6l21.7,18.3c2.6,2.2,4.2,5.3,4.5,8.7S180.3,309.2,178.1,311.8L178.1,311.8z
		 M193.9,276c-4.6,5.4-12.7,6.1-18.1,1.5l-13.2-11.1c0,0,0,0,0-0.1l0,0l-11.6-9.8c-5.4-4.6-6.1-12.7-1.5-18.1
		c2.2-2.6,5.3-4.2,8.7-4.5c3.4-0.3,6.7,0.8,9.3,3l0,0c0,0,0,0,0,0l24.8,20.9C197.8,262.5,198.5,270.6,193.9,276L193.9,276z
		 M218.2,247.3c-4.6,5.4-12.7,6.1-18.1,1.5l-24.9-21c0,0,0,0,0,0l-9.5-8c-2.6-2.2-4.2-5.3-4.5-8.7c-0.3-3.4,0.8-6.8,3-9.3
		c2.2-2.6,5.3-4.2,8.7-4.5c3.4-0.3,6.7,0.7,9.3,2.9l0.1,0l34.4,29c2.8,2.4,4.6,6,4.8,9.8C221.5,242.1,220.5,244.9,218.2,247.3
		L218.2,247.3z M246,221.7c-2.2,2.6-5.3,4.2-8.7,4.5c-3.4,0.3-6.7-0.8-9.3-2.9c-0.3-0.2-0.6-0.3-0.8-0.1c-0.9-1-1.8-2.1-2.9-3
		l-34.4-29c0,0,0,0-0.1-0.1l-4.5-3.8c-5.4-4.6-6.1-12.7-1.5-18.1c4.6-5.4,12.7-6.1,18.1-1.5l8.2,6.9c0,0,0,0,0,0l13,10.9l4,3.4h0
		l17.5,14.7c2.8,2.4,4.6,6,4.8,9.8C249.4,216.5,248.3,219.3,246,221.7L246,221.7z"/>
	<path d="M269.6,106.4c3.3,0,6-2.7,6-6V69c0-3.3-2.7-6-6-6c-3.3,0-6,2.7-6,6v31.4C263.6,103.7,266.3,106.4,269.6,106.4z"/>
	<path d="M348.6,123.5c1.8,0,3.6-0.8,4.8-2.4L372,95.8c1.9-2.7,1.4-6.4-1.3-8.3c-2.7-2-6.4-1.4-8.3,1.3L343.8,114
		c-1.9,2.7-1.4,6.4,1.3,8.3C346.1,123.1,347.4,123.5,348.6,123.5L348.6,123.5z"/>
	<path d="M185.8,121.1c1.2,1.6,3,2.4,4.8,2.4c1.2,0,2.5-0.4,3.5-1.2c2.7-1.9,3.2-5.7,1.3-8.3l-18.6-25.3c-1.9-2.6-5.7-3.2-8.3-1.3
		c-2.7,1.9-3.2,5.7-1.3,8.3L185.8,121.1z"/>
</g>
</svg>
