<?xml version="1.0" encoding="UTF-8" standalone="no"?>
<svg
   width="134.86"
   height="116.79"
   viewBox="0 0 134.86 116.79"
   version="1.1"
   id="svg898"
   xmlns="http://www.w3.org/2000/svg"
   xmlns:svg="http://www.w3.org/2000/svg">
  <defs
     id="defs884">
    <style
       id="style879">.cls-1{fill:none;}.cls-2{fill:#ff5ad6;}.cls-3{clip-path:url(#clip-path);}.cls-4{opacity:0.15;}.cls-5{fill:#fff;}</style>
    <clipPath
       id="clip-path">
      <polygon
         class="cls-1"
         points="101.15,0 33.72,0 0,58.4 33.72,116.79 101.15,116.79 134.86,58.4 "
         id="polygon881" />
    </clipPath>
  </defs>
  <g
     id="Ebene_2"
     data-name="Ebene 2">
    <g
       id="Ebene_1-2"
       data-name="Ebene 1">
      <polygon
         class="cls-2"
         points="101.15,0 33.72,0 0,58.4 33.72,116.79 101.15,116.79 134.86,58.4 "
         id="polygon886" />
      <g
         class="cls-3"
         clip-path="url(#clip-path)"
         id="g890">
        <polygon
           class="cls-4"
           points="74.18,27.83 54.81,55.33 47.75,48.27 43.07,54.51 49.06,63.5 38.13,79.02 88.02,128.91 132.98,86.64 "
           id="polygon888" />
      </g>
      <path
         class="cls-5"
         d="m 43.25,45.7 h -5.12 v 32.67 h 5.12 A 5.78,5.78 0 0 0 49,72.6 V 51.46 A 5.66,5.66 0 0 0 43.24,45.7 Z"
         id="path892" />
      <path
         class="cls-5"
         d="m 95.13,52.42 a 4.75,4.75 0 0 0 -4.8,-4.8 H 75.92 c -0.77,0 -3.46,-1.16 -1.35,-4.43 1.35,-2.49 1.35,-11.91 1.35,-11.91 a 4.81,4.81 0 0 0 -9.61,0 c 0,14 -13.45,18.26 -13.45,18.26 v 25 c 6.15,2.12 7.68,5.77 15.37,5.77 h 14.42 a 4.81,4.81 0 0 0 3.84,-7.69 4.75,4.75 0 0 0 4.8,-4.8 5.28,5.28 0 0 0 -1.15,-3.27 4.74,4.74 0 0 0 3.07,-4.42 5.28,5.28 0 0 0 -1.15,-3.27 4.63,4.63 0 0 0 3.07,-4.42 z"
         id="path894" />
    </g>
  </g>
</svg>
