<?xml version="1.0" encoding="UTF-8" standalone="no"?>
<svg
   width="134.86"
   height="116.79"
   viewBox="0 0 134.86 116.79"
   version="1.1"
   id="svg21"
   xmlns="http://www.w3.org/2000/svg"
   xmlns:svg="http://www.w3.org/2000/svg">
  <defs
     id="defs7">
    <style
       id="style2">.cls-1{fill:none;}.cls-2{fill:#7f0f68;}.cls-3{clip-path:url(#clip-path);}.cls-4{opacity:0.15;}.cls-5{fill:#fff;}</style>
    <clipPath
       id="clip-path">
      <polygon
         class="cls-1"
         points="0,58.4 33.72,116.79 101.15,116.79 134.86,58.4 101.15,0 33.72,0 "
         id="polygon4" />
    </clipPath>
  </defs>
  <g
     id="Ebene_2"
     data-name="Ebene 2">
    <g
       id="Ebene_1-2"
       data-name="Ebene 1">
      <polygon
         class="cls-2"
         points="0,58.4 33.72,116.79 101.15,116.79 134.86,58.4 101.15,0 33.72,0 "
         id="polygon9" />
      <g
         class="cls-3"
         clip-path="url(#clip-path)"
         id="g13">
        <polygon
           class="cls-4"
           points="61.74,56.36 60.76,68.15 45.66,65.54 59.8,79.69 59.69,81.08 58.08,80.67 49.27,71.86 52.84,79.33 42.63,76.73 102.92,137.02 147.85,82.27 92.08,26.51 "
           id="polygon11" />
      </g>
      <path
         class="cls-5"
         d="m 92,26.51 v 0 c -18.08,5.43 -24.82,15.24 -29.5,22.06 -5.07,7.4 -8.24,12 -17,7.93 l 0.1,9 26.28,17.96 9.18,-2.69 C 74,74 77.23,69.23 82.3,61.64 86.93,54.72 93.5,44.87 92,26.51 Z M 75,58 68.93,53.86 76.13,43.32 c 1.72,-2.51 7.81,1.6 6.07,4.14 z"
         id="path15" />
      <polygon
         class="cls-5"
         points="64.62,82.35 49.24,71.84 42.61,76.71 62.48,90.29 "
         id="polygon17" />
    </g>
  </g>
</svg>
