<?xml version="1.0" encoding="UTF-8" standalone="no"?>
<svg
   width="134.86"
   height="116.79"
   viewBox="0 0 134.86 116.78999"
   version="1.1"
   id="svg859"
   xmlns="http://www.w3.org/2000/svg"
   xmlns:svg="http://www.w3.org/2000/svg">
  <defs
     id="defs845">
    <style
       id="style840">.cls-1{fill:none;}.cls-2{fill:#c81ea7;}.cls-3,.cls-5{fill-rule:evenodd;}.cls-3{opacity:0.15;}.cls-4{clip-path:url(#clip-path);}.cls-5{fill:#fff;}</style>
    <clipPath
       id="clip-path">
      <polygon
         class="cls-1"
         points="33.72,116.79 101.15,116.79 134.86,58.4 101.15,0 33.72,0 0,58.4 "
         id="polygon842" />
    </clipPath>
  </defs>
  <g
     id="Ebene_2"
     data-name="Ebene 2">
    <g
       id="Ebene_1-2"
       data-name="Ebene 1">
      <polygon
         class="cls-2"
         points="33.72,116.79 101.15,116.79 134.86,58.4 101.15,0 33.72,0 0,58.4 "
         id="polygon847" />
      <polygon
         class="cls-3"
         points="36.36,51.38 68.69,60.21 67.51,28.62 92.05,53.16 62.01,77.04 "
         id="polygon849" />
      <g
         class="cls-4"
         clip-path="url(#clip-path)"
         id="g853">
        <polygon
           class="cls-3"
           points="98.53,51.27 47.96,88.33 89.47,129.85 135.84,88.57 "
           id="polygon851" />
      </g>
      <path
         class="cls-5"
         d="M 67.43,28.62 57.83,48.12 36.36,51.33 51.84,66.6 48.23,88.18 67.43,78.06 86.63,88.18 83,66.6 98.5,51.33 77,48.12 Z"
         id="path855" />
    </g>
  </g>
</svg>
